<svg data-v-423bf9ae="" xmlns="http://www.w3.org/2000/svg" viewBox="0 0 449 90" class="iconLeftSlogan"><!----><!----><!----><g data-v-423bf9ae="" id="1a412281-cd38-4d11-bac9-b924e2530961" fill="black" transform="matrix(4.087193641044897,0,0,4.087193641044897,102.11531060693184,-11.117166582159093)"><path d="M0.47 13.20C0.64 13.29 0.85 13.38 1.11 13.48C1.64 13.66 2.16 13.76 2.67 13.76C3.41 13.76 4.14 13.59 4.69 13.28C5.30 12.92 5.66 12.38 5.66 11.63C5.66 11.30 5.58 11.03 5.42 10.79C5.15 10.39 4.71 10.05 4.09 9.78C3.77 9.64 3.52 9.53 3.34 9.44C2.81 9.18 2.53 8.96 2.53 8.64C2.53 8.43 2.63 8.25 2.85 8.13C3.03 8.03 3.27 7.97 3.56 7.97C3.80 7.97 4.01 8.00 4.19 8.06C4.54 8.18 4.82 8.33 5.01 8.53L5.24 7.67C5.09 7.57 4.94 7.50 4.76 7.44C4.35 7.29 3.93 7.22 3.49 7.22C3.05 7.22 2.65 7.27 2.26 7.39C1.80 7.53 1.44 7.74 1.16 8.02C0.85 8.34 0.69 8.74 0.69 9.20C0.69 9.53 0.76 9.81 0.92 10.04C1.18 10.45 1.62 10.81 2.23 11.10L2.56 11.26C2.75 11.35 2.89 11.42 2.98 11.47C3.51 11.73 3.78 11.94 3.78 12.23C3.78 12.48 3.68 12.67 3.47 12.80C3.27 12.92 3.02 12.99 2.72 12.99C2.46 12.99 2.21 12.95 1.96 12.88C1.48 12.75 1.04 12.57 0.65 12.33ZM10.51 7.22C9.86 7.22 9.25 7.32 8.69 7.53C8.07 7.77 7.59 8.12 7.25 8.57C6.85 9.10 6.66 9.75 6.66 10.51C6.66 11.59 7.07 12.42 7.78 12.97C8.43 13.50 9.34 13.76 10.35 13.76C10.75 13.76 11.16 13.68 11.59 13.52C11.98 13.38 12.29 13.22 12.43 13.06L12.29 12.34C12.10 12.47 11.88 12.58 11.63 12.67C11.24 12.82 10.87 12.89 10.51 12.89C10.06 12.89 9.64 12.69 9.32 12.32C8.99 11.92 8.78 11.33 8.77 10.58L8.77 10.43C8.77 10.39 8.78 10.35 8.79 10.28L12.10 10.28L12.55 10.28C12.66 10.28 12.80 10.28 12.99 10.28L13.38 10.28C13.45 10.29 13.55 10.29 13.66 10.29L13.81 9.54L13.66 9.54C13.60 9.55 13.50 9.55 13.36 9.55L13.01 9.55C12.93 9.55 12.83 9.55 12.72 9.55C13.00 9.44 13.15 9.21 13.15 8.72C13.15 8.38 13.01 8.08 12.71 7.83C12.45 7.63 12.10 7.47 11.66 7.36C11.29 7.27 10.91 7.22 10.51 7.22ZM10.48 8.09C11.12 8.09 11.52 8.42 11.52 8.97C11.52 9.18 11.43 9.33 11.26 9.42C11.13 9.49 10.96 9.53 10.75 9.53C10.33 9.53 10.02 9.53 9.81 9.52L8.86 9.52C8.97 9.05 9.21 8.68 9.51 8.44C9.79 8.21 10.14 8.09 10.48 8.09ZM18.36 8.09C18.65 8.09 18.89 8.11 19.08 8.16C19.45 8.25 19.75 8.37 19.96 8.53L20.15 7.60C20.02 7.53 19.86 7.47 19.67 7.41C19.28 7.28 18.83 7.22 18.32 7.22C17.30 7.22 16.35 7.46 15.66 7.96C14.86 8.54 14.46 9.39 14.46 10.51C14.46 11.61 14.85 12.43 15.56 12.97C16.23 13.50 17.19 13.76 18.30 13.76C18.66 13.76 19.05 13.68 19.47 13.52C19.86 13.38 20.13 13.23 20.27 13.06L20.13 12.34C19.90 12.49 19.69 12.59 19.49 12.67C19.12 12.82 18.76 12.89 18.40 12.89C17.89 12.89 17.45 12.69 17.12 12.32C16.77 11.90 16.58 11.28 16.58 10.46C16.58 9.70 16.76 9.10 17.10 8.68C17.42 8.29 17.88 8.09 18.36 8.09ZM28.83 13.53C28.81 13.36 28.78 13.11 28.76 12.80C28.72 12.23 28.70 11.61 28.70 10.91L28.70 9.94C28.70 9.54 28.71 9.18 28.72 8.86C28.74 8.24 28.78 7.73 28.83 7.33L26.54 7.51C26.56 7.67 26.59 7.89 26.61 8.15C26.66 8.69 26.68 9.30 26.68 9.98L26.68 10.42C26.68 10.96 26.52 11.51 26.24 11.93C25.95 12.37 25.55 12.63 25.11 12.63C24.64 12.63 24.30 12.48 24.09 12.17C23.88 11.87 23.78 11.40 23.78 10.76L23.78 9.88C23.78 9.51 23.79 9.17 23.80 8.87C23.82 8.29 23.86 7.81 23.91 7.43L21.64 7.43L21.68 7.87L21.69 8.04C21.73 8.67 21.76 9.32 21.76 9.97L21.76 11.16C21.76 11.92 21.93 12.52 22.28 12.94C22.71 13.47 23.41 13.73 24.35 13.73C24.81 13.73 25.28 13.57 25.70 13.31C26.10 13.06 26.43 12.71 26.63 12.33C26.62 12.48 26.61 12.59 26.61 12.64C26.61 12.73 26.60 12.79 26.60 12.83C26.57 13.20 26.55 13.43 26.54 13.53ZM35.27 7.30C35.15 7.25 34.99 7.22 34.80 7.22C34.33 7.22 33.93 7.43 33.60 7.86C33.43 8.08 33.30 8.33 33.21 8.62C33.23 8.12 33.26 7.69 33.31 7.33L31.02 7.51L31.09 8.20C31.14 8.79 31.16 9.43 31.16 10.09L31.16 10.91C31.16 11.30 31.15 11.65 31.14 11.96C31.11 12.57 31.07 13.10 31.02 13.53L33.31 13.53C33.29 13.36 33.26 13.11 33.24 12.80C33.19 12.17 33.17 11.54 33.17 10.91L33.17 10.02C33.17 9.71 33.31 9.35 33.54 9.04C33.78 8.72 34.13 8.51 34.52 8.51C34.60 8.51 34.69 8.53 34.78 8.55C34.95 8.60 35.08 8.65 35.16 8.71L35.41 7.39C35.38 7.35 35.34 7.32 35.27 7.30ZM36.46 5.17L38.18 5.99L38.93 4.38L37.23 3.58ZM36.64 10.91C36.64 11.30 36.63 11.65 36.62 11.96C36.59 12.57 36.55 13.10 36.51 13.53L38.79 13.53C38.77 13.36 38.74 13.11 38.72 12.80C38.68 12.23 38.65 11.61 38.65 10.91L38.65 9.94C38.65 9.54 38.66 9.18 38.68 8.86C38.70 8.24 38.73 7.73 38.79 7.33L36.51 7.51L36.57 8.20C36.62 8.79 36.64 9.43 36.64 10.09ZM40.31 8.30L41.13 8.30L41.13 10.43C41.13 11.66 41.28 12.46 41.66 12.97C42.06 13.51 42.71 13.76 43.73 13.76C44.09 13.76 44.41 13.73 44.67 13.66C45.19 13.54 45.60 13.38 45.89 13.16L45.72 12.32C45.59 12.43 45.45 12.51 45.30 12.59C44.97 12.76 44.64 12.85 44.32 12.85C43.82 12.85 43.53 12.63 43.36 12.17C43.20 11.75 43.14 11.10 43.14 10.06L43.14 8.32L43.79 8.35L44.13 8.37L44.81 8.42C44.93 8.44 45.00 8.44 45.02 8.45L45.23 7.44L43.14 7.44C43.14 6.70 43.15 6.06 43.16 5.53C43.16 5.38 43.16 5.19 43.16 4.96L41.92 4.96C41.78 5.16 41.65 5.37 41.52 5.60C41.26 6.08 41.13 6.49 41.13 6.82L41.13 7.50C41.05 7.51 40.93 7.54 40.76 7.57C40.55 7.64 40.40 7.69 40.32 7.73ZM48.32 13.40L48.95 13.67C48.78 13.88 48.58 14.13 48.36 14.43C48.01 14.95 47.69 15.44 47.40 15.94C47.20 16.30 47.01 16.64 46.84 16.96L46.76 17.12L46.81 17.40L47.61 17.39C47.68 17.21 47.87 16.87 48.18 16.37C48.59 15.72 48.95 15.19 49.25 14.79C49.70 14.18 50.09 13.73 50.41 13.43C50.70 13.15 51.00 12.83 51.32 12.47C51.93 11.77 52.36 11.07 52.62 10.36C52.81 9.86 52.90 9.30 52.90 8.69C52.90 8.53 52.90 8.41 52.89 8.34L52.88 8.16L52.84 7.74C52.82 7.62 52.81 7.55 52.80 7.51L51.58 7.34C51.63 7.47 51.67 7.64 51.71 7.85C51.75 8.08 51.77 8.34 51.77 8.66C51.77 8.75 51.77 8.93 51.76 9.18C51.70 9.77 51.45 10.42 51.02 11.13C50.79 11.53 50.46 11.98 50.04 12.47C49.53 11.02 49.14 9.92 48.87 9.16C48.79 8.95 48.73 8.74 48.68 8.53C48.57 8.12 48.48 7.76 48.43 7.44L46.03 7.44C46.08 7.55 46.14 7.67 46.21 7.83C46.24 7.92 46.28 7.99 46.30 8.04C46.45 8.37 46.61 8.78 46.80 9.28L47.11 10.10ZM54.03 10.93L54.64 10.90C55.16 10.87 55.67 10.86 56.18 10.86C56.41 10.86 56.71 10.86 57.07 10.87C57.53 10.89 57.97 10.92 58.38 10.96L58.38 9.93L57.77 9.98C57.34 10.00 56.81 10.01 56.20 10.01C55.97 10.01 55.69 10.00 55.34 10.00C54.85 9.98 54.41 9.96 54.03 9.93ZM66.39 13.38C66.37 13.28 66.36 13.12 66.35 12.89C66.31 12.30 66.29 11.56 66.29 10.69L66.29 10.21L66.29 9.90C66.29 9.79 66.28 9.67 66.28 9.55C66.24 8.82 66.05 8.26 65.70 7.88C65.28 7.43 64.62 7.22 63.74 7.22C63.25 7.22 62.73 7.37 62.30 7.64C61.86 7.92 61.52 8.30 61.36 8.70L61.36 5.53C61.36 5.13 61.37 4.76 61.38 4.42C61.40 3.75 61.44 3.19 61.50 2.72L59.21 2.90L59.28 3.74C59.33 4.46 59.35 5.21 59.35 5.99L59.35 10.91C59.35 11.30 59.34 11.65 59.33 11.96C59.30 12.57 59.26 13.10 59.21 13.53L61.50 13.53C61.47 13.36 61.45 13.11 61.43 12.80C61.38 12.23 61.36 11.61 61.36 10.91L61.36 10.48C61.37 9.95 61.54 9.42 61.82 9.00C62.10 8.57 62.50 8.31 62.93 8.31C63.46 8.31 63.79 8.48 63.99 8.86C64.19 9.21 64.27 9.74 64.27 10.51C64.27 11.51 64.25 12.26 64.20 12.78C64.16 13.27 64.14 13.52 64.13 13.53L66.41 13.53ZM75.31 13.53C75.29 13.36 75.26 13.11 75.24 12.80C75.20 12.23 75.18 11.61 75.18 10.91L75.18 9.94C75.18 9.54 75.19 9.18 75.20 8.86C75.22 8.24 75.26 7.73 75.31 7.33L73.02 7.51C73.05 7.67 73.07 7.89 73.09 8.15C73.14 8.69 73.16 9.30 73.16 9.98L73.16 10.42C73.16 10.96 73.00 11.51 72.72 11.93C72.43 12.37 72.03 12.63 71.59 12.63C71.12 12.63 70.78 12.48 70.57 12.17C70.36 11.87 70.26 11.40 70.26 10.76L70.26 9.88C70.26 9.51 70.27 9.17 70.28 8.87C70.30 8.29 70.34 7.81 70.39 7.43L68.12 7.43L68.16 7.87L68.17 8.04C68.22 8.67 68.24 9.32 68.24 9.97L68.24 11.16C68.24 11.92 68.41 12.52 68.76 12.94C69.20 13.47 69.89 13.73 70.83 13.73C71.29 13.73 71.76 13.57 72.18 13.31C72.58 13.06 72.91 12.71 73.11 12.33C73.10 12.48 73.09 12.59 73.09 12.64C73.09 12.73 73.08 12.79 73.08 12.83C73.05 13.20 73.03 13.43 73.02 13.53ZM84.85 10.29C84.85 9.39 84.62 8.62 84.14 8.08C83.63 7.50 82.88 7.22 81.88 7.22C81.28 7.22 80.77 7.35 80.35 7.62C80.05 7.83 79.79 8.10 79.59 8.45L79.59 5.53C79.59 5.13 79.60 4.76 79.61 4.42C79.64 3.72 79.68 3.16 79.73 2.72L77.44 2.90L77.46 3.12L77.51 3.76C77.55 4.60 77.57 5.38 77.57 6.10L77.57 8.06L77.57 9.34L77.57 10.11L77.57 10.52L77.57 10.73C77.57 10.79 77.57 10.84 77.58 10.89C77.60 11.75 77.85 12.41 78.31 12.89C78.86 13.46 79.70 13.75 80.83 13.75C82.00 13.75 82.99 13.48 83.71 12.92C84.44 12.33 84.85 11.46 84.85 10.29ZM82.78 10.25C82.78 10.94 82.64 11.52 82.35 11.98C82.06 12.43 81.68 12.71 81.19 12.82C81.05 12.87 80.93 12.89 80.81 12.89C80.46 12.89 80.18 12.71 79.96 12.36C79.72 11.96 79.60 11.36 79.60 10.75L79.60 10.63C79.60 9.96 79.79 9.38 80.09 8.93C80.37 8.53 80.72 8.25 81.05 8.13C81.21 8.08 81.36 8.05 81.49 8.05C81.82 8.05 82.09 8.18 82.31 8.44C82.61 8.81 82.78 9.44 82.78 10.25Z"></path></g><!----><g data-v-423bf9ae="" id="8633c0a8-db27-4075-8a69-65bc089bed19" transform="matrix(1.122684450472796,0,0,1.122684450472796,-12.457481820019566,-11.298369561817793)" stroke="none" fill="black"><path d="M78.586 10.583H23.627a8 8 0 0 0-8 8v2.095a3.994 3.994 0 0 0-3.895 3.989v17a3.994 3.994 0 0 0 3.895 3.989V69.01c-2.16.058-3.895 1.816-3.895 3.989s1.735 3.932 3.895 3.989v5.76a8 8 0 0 0 8 8h54.958a8 8 0 0 0 8-8V18.583a7.999 7.999 0 0 0-7.999-8zm0 72.166H23.627V18.583h54.958v64.166z"></path><path d="M51.106 62.332c9.741 0 17.666-7.925 17.666-17.666S60.848 27 51.106 27s-17.667 7.925-17.667 17.666c.001 9.741 7.926 17.666 17.667 17.666zm0-27.332c5.33 0 9.666 4.336 9.666 9.666s-4.336 9.666-9.666 9.666c-5.331 0-9.667-4.336-9.667-9.666.001-5.33 4.337-9.666 9.667-9.666z"></path><circle cx="32.106" cy="26.333" r="4"></circle><circle cx="70.106" cy="26.333" r="4"></circle></g><!----><g data-v-423bf9ae="" id="b10b7a3e-ab95-4c53-80d6-8bc3611c2eeb" fill="black" transform="matrix(0.6462765177618452,0,0,0.6462765177618452,103.12504625025284,56.90433686616256)"><path d="M10.54 5.74L10.54 5.74L10.54 5.74Q10.58 5.98 10.61 6.07L10.61 6.07L10.61 6.07Q10.63 6.16 10.63 6.31L10.63 6.31L10.63 6.31Q10.63 6.78 10.42 7.18L10.42 7.18L10.42 7.18Q10.22 7.57 9.87 7.74L9.87 7.74L9.87 7.74Q9.59 7.36 9.18 7.09L9.18 7.09L9.18 7.09Q8.78 6.82 8.29 6.64L8.29 6.64L8.29 6.64Q7.81 6.47 7.29 6.38L7.29 6.38L7.29 6.38Q6.78 6.30 6.29 6.30L6.29 6.30L6.29 6.30Q5.80 6.30 5.37 6.38L5.37 6.38L5.37 6.38Q4.94 6.45 4.61 6.59L4.61 6.59L4.61 6.59Q4.28 6.72 4.09 6.92L4.09 6.92L4.09 6.92Q3.91 7.11 3.91 7.36L3.91 7.36L3.91 7.36Q3.95 7.67 4.28 7.99L4.28 7.99L4.28 7.99Q4.62 8.30 5.11 8.60L5.11 8.60L5.11 8.60Q5.60 8.90 6.20 9.20L6.20 9.20L6.20 9.20Q6.79 9.49 7.36 9.76L7.36 9.76L7.36 9.76Q8.08 10.09 8.60 10.38L8.60 10.38L8.60 10.38Q9.11 10.67 9.45 11.01L9.45 11.01L9.45 11.01Q9.79 11.35 9.95 11.79L9.95 11.79L9.95 11.79Q10.12 12.22 10.12 12.84L10.12 12.84L10.12 12.84Q10.12 13.55 9.88 14.18L9.88 14.18L9.88 14.18Q9.65 14.80 9.19 15.26L9.19 15.26L9.19 15.26Q8.74 15.72 8.09 15.98L8.09 15.98L8.09 15.98Q7.45 16.24 6.65 16.24L6.65 16.24L6.65 16.24Q5.87 16.24 4.96 16.00L4.96 16.00L4.96 16.00Q4.05 15.76 3.25 15.35L3.25 15.35L3.25 15.35Q2.46 14.94 1.94 14.40L1.94 14.40L1.94 14.40Q1.41 13.86 1.41 13.26L1.41 13.26L1.41 13.26Q1.41 12.98 1.57 12.54L1.57 12.54L1.57 12.54Q1.74 12.11 2.16 11.63L2.16 11.63L2.16 11.63Q2.20 12.05 2.61 12.63L2.61 12.63L2.61 12.63Q3.02 13.20 3.85 13.69L3.85 13.69L3.85 13.69Q4.62 14.14 5.44 14.34L5.44 14.34L5.44 14.34Q6.26 14.55 6.97 14.55L6.97 14.55L6.97 14.55Q7.76 14.55 8.25 14.35L8.25 14.35L8.25 14.35Q8.74 14.15 9.02 13.88L9.02 13.88L9.02 13.88Q9.30 13.61 9.41 13.33L9.41 13.33L9.41 13.33Q9.52 13.05 9.53 12.88L9.53 12.88L9.53 12.88Q9.52 12.60 9.28 12.34L9.28 12.34L9.28 12.34Q9.03 12.08 8.62 11.84L8.62 11.84L8.62 11.84Q8.20 11.59 7.66 11.34L7.66 11.34L7.66 11.34Q7.11 11.09 6.52 10.84L6.52 10.84L6.52 10.84Q5.64 10.44 5.00 10.10L5.00 10.10L5.00 10.10Q4.37 9.76 3.96 9.40L3.96 9.40L3.96 9.40Q3.54 9.04 3.35 8.65L3.35 8.65L3.35 8.65Q3.16 8.26 3.16 7.76L3.16 7.76L3.16 7.76Q3.16 6.97 3.64 6.27L3.64 6.27L3.64 6.27Q4.12 5.57 5.01 5.21L5.01 5.21L5.01 5.21Q5.46 5.01 5.97 4.93L5.97 4.93L5.97 4.93Q6.48 4.84 6.97 4.84L6.97 4.84L6.97 4.84Q7.90 4.84 8.78 5.10L8.78 5.10L8.78 5.10Q9.66 5.35 10.54 5.74ZM24.02 9.21L24.02 9.21L24.02 9.21Q24.49 9.21 24.74 9.46L24.74 9.46L24.74 9.46Q25.00 9.72 25.00 10.16L25.00 10.16L25.00 10.16Q25.00 10.28 24.98 10.39L24.98 10.39L24.98 10.39Q24.96 10.51 24.93 10.60L24.93 10.60L24.93 10.60Q24.75 10.57 24.53 10.55L24.53 10.55L24.53 10.55Q24.30 10.53 24.00 10.53L24.00 10.53L24.00 10.53Q23.39 10.53 22.78 10.63L22.78 10.63L22.78 10.63Q22.16 10.74 21.60 10.81L21.60 10.81L21.60 10.81Q21.28 11.55 21.01 12.24L21.01 12.24L21.01 12.24Q20.75 12.94 20.56 13.51L20.56 13.51L20.56 13.51Q20.37 14.08 20.27 14.50L20.27 14.50L20.27 14.50Q20.16 14.92 20.15 15.13L20.15 15.13L20.15 15.13Q21.28 14.90 22.43 14.73L22.43 14.73L22.43 14.73Q23.59 14.56 24.86 14.48L24.86 14.48L24.86 14.48Q25.02 14.71 25.12 14.99L25.12 14.99L25.12 14.99Q25.23 15.27 25.23 15.60L25.23 15.60L25.23 15.60Q25.23 15.68 25.23 15.78L25.23 15.78L25.23 15.78Q25.23 15.88 25.20 15.97L25.20 15.97L25.20 15.97Q24.81 15.96 24.37 15.95L24.37 15.95L24.37 15.95Q23.94 15.95 23.24 15.95L23.24 15.95L23.24 15.95Q22.78 15.95 22.36 15.97L22.36 15.97L22.36 15.97Q21.95 15.99 21.53 16.03L21.53 16.03L21.53 16.03Q21.11 16.07 20.64 16.14L20.64 16.14L20.64 16.14Q20.17 16.21 19.59 16.31L19.59 16.31L19.59 16.31Q18.94 16.06 18.34 15.08L18.34 15.08L18.34 15.08Q18.58 14.57 19.00 13.54L19.00 13.54L19.00 13.54Q19.43 12.52 20.09 10.79L20.09 10.79L20.09 10.79Q19.46 10.60 19.26 10.09L19.26 10.09L19.26 10.09Q19.33 10.02 19.67 9.92L19.67 9.92L19.67 9.92Q20.01 9.81 20.50 9.70L20.50 9.70L20.50 9.70Q20.71 9.16 20.85 8.75L20.85 8.75L20.85 8.75Q21 8.34 21.11 7.99L21.11 7.99L21.11 7.99Q21.22 7.63 21.31 7.29L21.31 7.29L21.31 7.29Q21.41 6.94 21.49 6.54L21.49 6.54L21.49 6.54Q21 6.51 20.72 6.27L20.72 6.27L20.72 6.27Q20.44 6.02 20.44 5.63L20.44 5.63L20.44 5.63Q20.44 5.52 20.48 5.36L20.48 5.36L20.48 5.36Q20.51 5.21 20.55 5.10L20.55 5.10L20.55 5.10Q20.83 5.14 21.09 5.15L21.09 5.15L21.09 5.15Q21.35 5.17 21.77 5.17L21.77 5.17L21.77 5.17Q22.65 5.17 23.42 5.12L23.42 5.12L23.42 5.12Q24.19 5.07 24.81 5.01L24.81 5.01L24.81 5.01Q25.44 4.96 25.89 4.91L25.89 4.91L25.89 4.91Q26.33 4.86 26.57 4.86L26.57 4.86L26.57 4.86Q26.89 4.86 27.15 5.19L27.15 5.19L27.15 5.19Q27.40 5.53 27.52 6.15L27.52 6.15L27.52 6.15Q27.09 6.10 26.82 6.09L26.82 6.09L26.82 6.09Q26.54 6.08 26.33 6.08L26.33 6.08L26.33 6.08Q25.56 6.08 24.93 6.15L24.93 6.15L24.93 6.15Q24.29 6.23 23.70 6.31L23.70 6.31L23.70 6.31Q23.62 6.44 23.51 6.64L23.51 6.64L23.51 6.64Q23.41 6.83 23.24 7.18L23.24 7.18L23.24 7.18Q23.07 7.53 22.83 8.06L22.83 8.06L22.83 8.06Q22.58 8.60 22.23 9.39L22.23 9.39L22.23 9.39Q22.76 9.31 23.23 9.26L23.23 9.26L23.23 9.26Q23.70 9.21 24.02 9.21ZM34.20 12.43L34.20 12.43L34.20 12.43Q34.20 11.45 34.43 10.51L34.43 10.51L34.43 10.51Q34.66 9.56 35.08 8.71L35.08 8.71L35.08 8.71Q35.50 7.87 36.09 7.16L36.09 7.16L36.09 7.16Q36.67 6.45 37.36 5.94L37.36 5.94L37.36 5.94Q38.05 5.42 38.84 5.13L38.84 5.13L38.84 5.13Q39.62 4.84 40.45 4.84L40.45 4.84L40.45 4.84Q41.41 4.84 41.95 5.25L41.95 5.25L41.95 5.25Q42.49 5.66 42.49 6.38L42.49 6.38L42.49 6.38Q42.49 6.66 42.41 6.96L42.41 6.96L42.41 6.96Q42.34 7.25 42.19 7.54L42.19 7.54L42.19 7.54Q42.04 7.83 41.85 8.09L41.85 8.09L41.85 8.09Q41.65 8.36 41.41 8.55L41.41 8.55L41.41 8.55Q41.05 8.50 40.78 8.22L40.78 8.22L40.78 8.22Q40.52 7.95 40.45 7.59L40.45 7.59L40.45 7.59Q40.94 7.18 41.22 6.74L41.22 6.74L41.22 6.74Q41.51 6.30 41.51 5.94L41.51 5.94L41.51 5.94Q41.51 5.32 40.74 5.32L40.74 5.32L40.74 5.32Q40.42 5.32 40.07 5.45L40.07 5.45L40.07 5.45Q39.73 5.59 39.38 5.82L39.38 5.82L39.38 5.82Q39.03 6.06 38.70 6.40L38.70 6.40L38.70 6.40Q38.37 6.73 38.09 7.14L38.09 7.14L38.09 7.14Q36.15 9.94 36.15 12.87L36.15 12.87L36.15 12.87Q36.15 13.90 36.47 14.53L36.47 14.53L36.47 14.53Q36.79 15.16 37.32 15.27L37.32 15.27L37.32 15.27Q37.93 15.13 38.85 14.50L38.85 14.50L38.85 14.50Q39.77 13.87 40.87 12.87L40.87 12.87L40.87 12.87Q41.01 13.01 41.03 13.16L41.03 13.16L41.03 13.16Q40.63 13.69 40.19 14.18L40.19 14.18L40.19 14.18Q39.76 14.67 39.33 15.08L39.33 15.08L39.33 15.08Q38.91 15.48 38.49 15.79L38.49 15.79L38.49 15.79Q38.08 16.10 37.73 16.27L37.73 16.27L37.73 16.27Q35.99 16.24 35.10 15.27L35.10 15.27L35.10 15.27Q34.20 14.31 34.20 12.43ZM54.46 5.75L54.46 5.75L54.46 5.75Q53.84 6.58 53.34 7.57L53.34 7.57L53.34 7.57Q52.84 8.57 52.48 9.61L52.48 9.61L52.48 9.61Q52.12 10.65 51.93 11.67L51.93 11.67L51.93 11.67Q51.74 12.68 51.74 13.57L51.74 13.57L51.74 13.57Q51.74 14.66 52.07 15.15L52.07 15.15L52.07 15.15Q52.39 15.64 53.17 15.64L53.17 15.64L53.17 15.64Q54.08 15.64 54.77 15.00L54.77 15.00L54.77 15.00Q55.45 14.36 56.06 13.24L56.06 13.24L56.06 13.24Q56.45 12.52 56.73 11.65L56.73 11.65L56.73 11.65Q57.01 10.78 57.18 9.86L57.18 9.86L57.18 9.86Q57.36 8.95 57.44 8.02L57.44 8.02L57.44 8.02Q57.53 7.08 57.53 6.23L57.53 6.23L57.53 6.23Q57.53 5.68 57.51 5.43L57.51 5.43L57.51 5.43Q57.50 5.18 57.47 5.03L57.47 5.03L57.47 5.03Q57.51 5.03 57.68 5.05L57.68 5.05L57.68 5.05Q57.85 5.08 58.06 5.12L58.06 5.12L58.06 5.12Q58.28 5.17 58.50 5.24L58.50 5.24L58.50 5.24Q58.72 5.31 58.87 5.39L58.87 5.39L58.87 5.39Q58.80 6.45 58.61 7.59L58.61 7.59L58.61 7.59Q58.42 8.72 58.11 9.83L58.11 9.83L58.11 9.83Q57.81 10.93 57.40 11.96L57.40 11.96L57.40 11.96Q56.99 12.98 56.49 13.79L56.49 13.79L56.49 13.79Q55.75 14.99 54.82 15.67L54.82 15.67L54.82 15.67Q53.90 16.35 52.64 16.35L52.64 16.35L52.64 16.35Q51.35 16.35 50.64 15.60L50.64 15.60L50.64 15.60Q49.92 14.85 49.92 13.33L49.92 13.33L49.92 13.33Q49.92 12.45 50.12 11.33L50.12 11.33L50.12 11.33Q50.32 10.22 50.65 9.07L50.65 9.07L50.65 9.07Q50.97 7.91 51.41 6.81L51.41 6.81L51.41 6.81Q51.84 5.71 52.32 4.84L52.32 4.84L52.32 4.84Q52.56 4.86 52.88 4.94L52.88 4.94L52.88 4.94Q53.20 5.03 53.51 5.16L53.51 5.16L53.51 5.16Q53.82 5.29 54.08 5.45L54.08 5.45L54.08 5.45Q54.33 5.61 54.46 5.75ZM75.36 7.46L75.36 7.46L75.36 7.46Q75.36 8.13 75.06 8.73L75.06 8.73L75.06 8.73Q74.76 9.32 74.23 9.79L74.23 9.79L74.23 9.79Q73.70 10.26 72.98 10.58L72.98 10.58L72.98 10.58Q72.27 10.91 71.43 11.02L71.43 11.02L71.43 11.02Q71.64 11.65 71.94 12.31L71.94 12.31L71.94 12.31Q72.24 12.98 72.59 13.59L72.59 13.59L72.59 13.59Q72.94 14.21 73.32 14.73L73.32 14.73L73.32 14.73Q73.70 15.25 74.06 15.58L74.06 15.58L74.06 15.58Q73.99 15.72 73.86 15.86L73.86 15.86L73.86 15.86Q73.72 16.00 73.55 16.12L73.55 16.12L73.55 16.12Q73.37 16.24 73.19 16.32L73.19 16.32L73.19 16.32Q73.00 16.39 72.83 16.39L72.83 16.39L72.83 16.39Q72.52 16.39 72.24 16.10L72.24 16.10L72.24 16.10Q71.96 15.81 71.67 15.17L71.67 15.17L71.67 15.17Q71.39 14.53 71.07 13.52L71.07 13.52L71.07 13.52Q70.76 12.50 70.38 11.07L70.38 11.07L70.38 11.07Q70.22 11.07 70.07 11.07L70.07 11.07L70.07 11.07Q69.92 11.07 69.83 11.05L69.83 11.05L69.83 11.05Q69.73 10.99 69.62 10.85L69.62 10.85L69.62 10.85Q69.24 11.66 68.95 12.38L68.95 12.38L68.95 12.38Q68.66 13.09 68.42 13.76L68.42 13.76L68.42 13.76Q68.19 14.42 68.02 15.04L68.02 15.04L68.02 15.04Q67.84 15.67 67.72 16.31L67.72 16.31L67.72 16.31Q67.24 16.20 66.89 15.90L66.89 15.90L66.89 15.90Q66.54 15.61 66.23 15.08L66.23 15.08L66.23 15.08Q66.29 14.95 66.35 14.83L66.35 14.83L66.35 14.83Q66.42 14.71 66.51 14.50L66.51 14.50L66.51 14.50Q66.61 14.28 66.76 13.94L66.76 13.94L66.76 13.94Q66.91 13.61 67.15 13.05L67.15 13.05L67.15 13.05Q67.40 12.49 67.74 11.68L67.74 11.68L67.74 11.68Q68.08 10.86 68.57 9.70L68.57 9.70L68.57 9.70Q68.80 9.18 68.96 8.79L68.96 8.79L68.96 8.79Q69.12 8.40 69.24 8.04L69.24 8.04L69.24 8.04Q69.37 7.69 69.47 7.33L69.47 7.33L69.47 7.33Q69.58 6.97 69.69 6.51L69.69 6.51L69.69 6.51Q69.05 6.73 68.50 7.01L68.50 7.01L68.50 7.01Q67.94 7.28 67.58 7.59L67.58 7.59L67.58 7.59Q67.45 7.50 67.32 7.34L67.32 7.34L67.32 7.34Q67.19 7.17 67.07 6.96L67.07 6.96L67.07 6.96Q66.96 6.76 66.88 6.55L66.88 6.55L66.88 6.55Q66.79 6.34 66.78 6.17L66.78 6.17L66.78 6.17Q67.20 5.89 67.81 5.66L67.81 5.66L67.81 5.66Q68.42 5.42 69.10 5.24L69.10 5.24L69.10 5.24Q69.79 5.07 70.50 4.97L70.50 4.97L70.50 4.97Q71.22 4.87 71.83 4.87L71.83 4.87L71.83 4.87Q73.51 4.87 74.44 5.56L74.44 5.56L74.44 5.56Q75.36 6.26 75.36 7.46ZM71.78 6.02L71.95 6.29L71.95 6.29Q71.85 6.41 71.64 6.79L71.64 6.79L71.64 6.79Q71.43 7.17 71.16 7.69L71.16 7.69L71.16 7.69Q70.88 8.22 70.58 8.83L70.58 8.83L70.58 8.83Q70.28 9.45 70 10.05L70 10.05L70 10.05Q71.05 10.05 71.93 9.86L71.93 9.86L71.93 9.86Q72.81 9.66 73.46 9.30L73.46 9.30L73.46 9.30Q74.10 8.95 74.46 8.46L74.46 8.46L74.46 8.46Q74.82 7.98 74.82 7.39L74.82 7.39L74.82 7.39Q74.82 6.69 74.31 6.32L74.31 6.32L74.31 6.32Q73.81 5.95 72.76 5.95L72.76 5.95L72.76 5.95Q72.52 5.95 72.28 5.97L72.28 5.97L72.28 5.97Q72.04 5.99 71.78 6.02L71.78 6.02ZM88.19 9.21L88.19 9.21L88.19 9.21Q88.65 9.21 88.91 9.46L88.91 9.46L88.91 9.46Q89.17 9.72 89.17 10.16L89.17 10.16L89.17 10.16Q89.17 10.28 89.15 10.39L89.15 10.39L89.15 10.39Q89.12 10.51 89.10 10.60L89.10 10.60L89.10 10.60Q88.91 10.57 88.69 10.55L88.69 10.55L88.69 10.55Q88.47 10.53 88.16 10.53L88.16 10.53L88.16 10.53Q87.56 10.53 86.94 10.63L86.94 10.63L86.94 10.63Q86.32 10.74 85.76 10.81L85.76 10.81L85.76 10.81Q85.44 11.55 85.18 12.24L85.18 12.24L85.18 12.24Q84.91 12.94 84.72 13.51L84.72 13.51L84.72 13.51Q84.53 14.08 84.43 14.50L84.43 14.50L84.43 14.50Q84.32 14.92 84.31 15.13L84.31 15.13L84.31 15.13Q85.44 14.90 86.60 14.73L86.60 14.73L86.60 14.73Q87.75 14.56 89.03 14.48L89.03 14.48L89.03 14.48Q89.18 14.71 89.29 14.99L89.29 14.99L89.29 14.99Q89.39 15.27 89.39 15.60L89.39 15.60L89.39 15.60Q89.39 15.68 89.39 15.78L89.39 15.78L89.39 15.78Q89.39 15.88 89.36 15.97L89.36 15.97L89.36 15.97Q88.97 15.96 88.54 15.95L88.54 15.95L88.54 15.95Q88.10 15.95 87.40 15.95L87.40 15.95L87.40 15.95Q86.94 15.95 86.53 15.97L86.53 15.97L86.53 15.97Q86.11 15.99 85.69 16.03L85.69 16.03L85.69 16.03Q85.27 16.07 84.81 16.14L84.81 16.14L84.81 16.14Q84.34 16.21 83.75 16.31L83.75 16.31L83.75 16.31Q83.10 16.06 82.50 15.08L82.50 15.08L82.50 15.08Q82.74 14.57 83.17 13.54L83.17 13.54L83.17 13.54Q83.59 12.52 84.25 10.79L84.25 10.79L84.25 10.79Q83.62 10.60 83.43 10.09L83.43 10.09L83.43 10.09Q83.50 10.02 83.83 9.92L83.83 9.92L83.83 9.92Q84.17 9.81 84.66 9.70L84.66 9.70L84.66 9.70Q84.87 9.16 85.02 8.75L85.02 8.75L85.02 8.75Q85.16 8.34 85.27 7.99L85.27 7.99L85.27 7.99Q85.39 7.63 85.48 7.29L85.48 7.29L85.48 7.29Q85.57 6.94 85.65 6.54L85.65 6.54L85.65 6.54Q85.16 6.51 84.88 6.27L84.88 6.27L84.88 6.27Q84.60 6.02 84.60 5.63L84.60 5.63L84.60 5.63Q84.60 5.52 84.64 5.36L84.64 5.36L84.64 5.36Q84.67 5.21 84.71 5.10L84.71 5.10L84.71 5.10Q84.99 5.14 85.25 5.15L85.25 5.15L85.25 5.15Q85.51 5.17 85.93 5.17L85.93 5.17L85.93 5.17Q86.81 5.17 87.58 5.12L87.58 5.12L87.58 5.12Q88.35 5.07 88.98 5.01L88.98 5.01L88.98 5.01Q89.60 4.96 90.05 4.91L90.05 4.91L90.05 4.91Q90.50 4.86 90.73 4.86L90.73 4.86L90.73 4.86Q91.06 4.86 91.31 5.19L91.31 5.19L91.31 5.19Q91.56 5.53 91.69 6.15L91.69 6.15L91.69 6.15Q91.25 6.10 90.98 6.09L90.98 6.09L90.98 6.09Q90.71 6.08 90.50 6.08L90.50 6.08L90.50 6.08Q89.73 6.08 89.09 6.15L89.09 6.15L89.09 6.15Q88.45 6.23 87.86 6.31L87.86 6.31L87.86 6.31Q87.78 6.44 87.68 6.64L87.68 6.64L87.68 6.64Q87.57 6.83 87.40 7.18L87.40 7.18L87.40 7.18Q87.23 7.53 86.99 8.06L86.99 8.06L86.99 8.06Q86.74 8.60 86.39 9.39L86.39 9.39L86.39 9.39Q86.93 9.31 87.40 9.26L87.40 9.26L87.40 9.26Q87.86 9.21 88.19 9.21ZM113.43 10.35L113.43 10.35L113.43 10.35Q114.48 9.20 115.31 7.91L115.31 7.91L115.31 7.91Q116.14 6.62 116.86 5.01L116.86 5.01L116.86 5.01Q117.22 5.05 117.56 5.21L117.56 5.21L117.56 5.21Q117.89 5.36 118.09 5.56L118.09 5.56L118.09 5.56Q117.32 6.48 116.70 7.24L116.70 7.24L116.70 7.24Q116.07 7.99 115.56 8.66L115.56 8.66L115.56 8.66Q115.04 9.32 114.60 9.93L114.60 9.93L114.60 9.93Q114.16 10.54 113.74 11.16L113.74 11.16L113.74 11.16Q113.53 11.87 113.34 12.60L113.34 12.60L113.34 12.60Q113.16 13.33 113.02 13.99L113.02 13.99L113.02 13.99Q112.88 14.66 112.80 15.22L112.80 15.22L112.80 15.22Q112.73 15.79 112.73 16.20L112.73 16.20L112.73 16.20Q112.57 16.20 112.24 16.14L112.24 16.14L112.24 16.14Q111.90 16.07 111.55 15.99L111.55 15.99L111.55 15.99Q111.20 15.90 110.91 15.82L110.91 15.82L110.91 15.82Q110.63 15.74 110.57 15.68L110.57 15.68L110.57 15.68Q110.80 15.30 111.01 14.75L111.01 14.75L111.01 14.75Q111.23 14.20 111.44 13.59L111.44 13.59L111.44 13.59Q111.65 12.98 111.85 12.36L111.85 12.36L111.85 12.36Q112.04 11.73 112.21 11.20L112.21 11.20L112.21 11.20Q111.86 10.11 111.53 9.15L111.53 9.15L111.53 9.15Q111.20 8.19 110.89 7.41L110.89 7.41L110.89 7.41Q110.59 6.64 110.31 6.08L110.31 6.08L110.31 6.08Q110.03 5.52 109.77 5.22L109.77 5.22L109.77 5.22Q109.91 5.17 110.20 5.11L110.20 5.11L110.20 5.11Q110.49 5.05 110.83 5.00L110.83 5.00L110.83 5.00Q111.17 4.94 111.53 4.91L111.53 4.91L111.53 4.91Q111.89 4.87 112.17 4.86L112.17 4.86L112.17 4.86Q112.17 5.21 112.23 5.71L112.23 5.71L112.23 5.71Q112.29 6.22 112.40 6.79L112.40 6.79L112.40 6.79Q112.50 7.36 112.64 7.95L112.64 7.95L112.64 7.95Q112.78 8.54 112.92 9.03L112.92 9.03L112.92 9.03Q113.06 9.52 113.20 9.88L113.20 9.88L113.20 9.88Q113.33 10.23 113.43 10.35ZM130.07 4.98L130.07 4.98L130.07 4.98Q130.34 5.10 130.62 5.27L130.62 5.27L130.62 5.27Q130.90 5.45 131.14 5.63L131.14 5.63L131.14 5.63Q131.38 5.81 131.54 5.98L131.54 5.98L131.54 5.98Q131.70 6.16 131.71 6.27L131.71 6.27L131.71 6.27Q131.47 6.22 131.24 6.20L131.24 6.20L131.24 6.20Q131.00 6.17 130.80 6.17L130.80 6.17L130.80 6.17Q130.17 6.17 129.55 6.48L129.55 6.48L129.55 6.48Q128.93 6.79 128.37 7.32L128.37 7.32L128.37 7.32Q127.81 7.85 127.33 8.57L127.33 8.57L127.33 8.57Q126.85 9.28 126.51 10.09L126.51 10.09L126.51 10.09Q126.17 10.91 125.97 11.77L125.97 11.77L125.97 11.77Q125.78 12.64 125.78 13.48L125.78 13.48L125.78 13.48Q125.78 14.57 126.14 15.11L126.14 15.11L126.14 15.11Q126.50 15.64 127.20 15.64L127.20 15.64L127.20 15.64Q127.54 15.64 127.93 15.51L127.93 15.51L127.93 15.51Q128.32 15.37 128.73 15.13L128.73 15.13L128.73 15.13Q129.14 14.90 129.53 14.56L129.53 14.56L129.53 14.56Q129.92 14.22 130.26 13.82L130.26 13.82L130.26 13.82Q130.75 13.23 131.14 12.48L131.14 12.48L131.14 12.48Q131.53 11.73 131.80 10.89L131.80 10.89L131.80 10.89Q132.08 10.05 132.22 9.16L132.22 9.16L132.22 9.16Q132.37 8.27 132.37 7.42L132.37 7.42L132.37 7.42Q132.37 7.08 132.36 6.85L132.36 6.85L132.36 6.85Q132.34 6.62 132.32 6.46L132.32 6.46L132.32 6.46Q132.30 6.30 132.29 6.20L132.29 6.20L132.29 6.20Q132.27 6.10 132.26 6.03L132.26 6.03L132.26 6.03Q132.43 6.12 132.63 6.24L132.63 6.24L132.63 6.24Q132.83 6.36 133.01 6.59L133.01 6.59L133.01 6.59Q133.18 6.82 133.30 7.20L133.30 7.20L133.30 7.20Q133.42 7.57 133.42 8.18L133.42 8.18L133.42 8.18Q133.42 9.16 133.19 10.10L133.19 10.10L133.19 10.10Q132.96 11.05 132.55 11.90L132.55 11.90L132.55 11.90Q132.13 12.75 131.57 13.50L131.57 13.50L131.57 13.50Q131.01 14.24 130.37 14.80L130.37 14.80L130.37 14.80Q129.53 15.54 128.58 15.95L128.58 15.95L128.58 15.95Q127.62 16.35 126.74 16.35L126.74 16.35L126.74 16.35Q125.45 16.35 124.78 15.53L124.78 15.53L124.78 15.53Q124.10 14.71 124.10 13.12L124.10 13.12L124.10 13.12Q124.10 12.26 124.28 11.31L124.28 11.31L124.28 11.31Q124.47 10.36 124.82 9.44L124.82 9.44L124.82 9.44Q125.16 8.51 125.64 7.68L125.64 7.68L125.64 7.68Q126.11 6.85 126.68 6.21L126.68 6.21L126.68 6.21Q127.25 5.57 127.90 5.19L127.90 5.19L127.90 5.19Q128.55 4.82 129.23 4.82L129.23 4.82L129.23 4.82Q129.46 4.82 129.65 4.85L129.65 4.85L129.65 4.85Q129.85 4.89 130.07 4.98ZM146.12 5.75L146.12 5.75L146.12 5.75Q145.50 6.58 145.00 7.57L145.00 7.57L145.00 7.57Q144.49 8.57 144.14 9.61L144.14 9.61L144.14 9.61Q143.78 10.65 143.59 11.67L143.59 11.67L143.59 11.67Q143.40 12.68 143.40 13.57L143.40 13.57L143.40 13.57Q143.40 14.66 143.72 15.15L143.72 15.15L143.72 15.15Q144.05 15.64 144.83 15.64L144.83 15.64L144.83 15.64Q145.74 15.64 146.43 15.00L146.43 15.00L146.43 15.00Q147.11 14.36 147.71 13.24L147.71 13.24L147.71 13.24Q148.11 12.52 148.39 11.65L148.39 11.65L148.39 11.65Q148.67 10.78 148.84 9.86L148.84 9.86L148.84 9.86Q149.02 8.95 149.10 8.02L149.10 8.02L149.10 8.02Q149.18 7.08 149.18 6.23L149.18 6.23L149.18 6.23Q149.18 5.68 149.17 5.43L149.17 5.43L149.17 5.43Q149.16 5.18 149.13 5.03L149.13 5.03L149.13 5.03Q149.17 5.03 149.34 5.05L149.34 5.05L149.34 5.05Q149.51 5.08 149.72 5.12L149.72 5.12L149.72 5.12Q149.94 5.17 150.16 5.24L150.16 5.24L150.16 5.24Q150.37 5.31 150.53 5.39L150.53 5.39L150.53 5.39Q150.46 6.45 150.27 7.59L150.27 7.59L150.27 7.59Q150.08 8.72 149.77 9.83L149.77 9.83L149.77 9.83Q149.46 10.93 149.06 11.96L149.06 11.96L149.06 11.96Q148.65 12.98 148.15 13.79L148.15 13.79L148.15 13.79Q147.41 14.99 146.48 15.67L146.48 15.67L146.48 15.67Q145.56 16.35 144.30 16.35L144.30 16.35L144.30 16.35Q143.01 16.35 142.30 15.60L142.30 15.60L142.30 15.60Q141.58 14.85 141.58 13.33L141.58 13.33L141.58 13.33Q141.58 12.45 141.78 11.33L141.78 11.33L141.78 11.33Q141.97 10.22 142.30 9.07L142.30 9.07L142.30 9.07Q142.63 7.91 143.07 6.81L143.07 6.81L143.07 6.81Q143.50 5.71 143.98 4.84L143.98 4.84L143.98 4.84Q144.21 4.86 144.54 4.94L144.54 4.94L144.54 4.94Q144.86 5.03 145.17 5.16L145.17 5.16L145.17 5.16Q145.47 5.29 145.73 5.45L145.73 5.45L145.73 5.45Q145.99 5.61 146.12 5.75ZM167.02 7.46L167.02 7.46L167.02 7.46Q167.02 8.13 166.72 8.73L166.72 8.73L166.72 8.73Q166.42 9.32 165.89 9.79L165.89 9.79L165.89 9.79Q165.35 10.26 164.64 10.58L164.64 10.58L164.64 10.58Q163.93 10.91 163.09 11.02L163.09 11.02L163.09 11.02Q163.30 11.65 163.60 12.31L163.60 12.31L163.60 12.31Q163.90 12.98 164.25 13.59L164.25 13.59L164.25 13.59Q164.60 14.21 164.98 14.73L164.98 14.73L164.98 14.73Q165.35 15.25 165.72 15.58L165.72 15.58L165.72 15.58Q165.65 15.72 165.52 15.86L165.52 15.86L165.52 15.86Q165.38 16.00 165.21 16.12L165.21 16.12L165.21 16.12Q165.03 16.24 164.84 16.32L164.84 16.32L164.84 16.32Q164.65 16.39 164.49 16.39L164.49 16.39L164.49 16.39Q164.18 16.39 163.90 16.10L163.90 16.10L163.90 16.10Q163.62 15.81 163.33 15.17L163.33 15.17L163.33 15.17Q163.04 14.53 162.73 13.52L162.73 13.52L162.73 13.52Q162.41 12.50 162.04 11.07L162.04 11.07L162.04 11.07Q161.88 11.07 161.73 11.07L161.73 11.07L161.73 11.07Q161.57 11.07 161.49 11.05L161.49 11.05L161.49 11.05Q161.39 10.99 161.28 10.85L161.28 10.85L161.28 10.85Q160.90 11.66 160.61 12.38L160.61 12.38L160.61 12.38Q160.31 13.09 160.08 13.76L160.08 13.76L160.08 13.76Q159.85 14.42 159.68 15.04L159.68 15.04L159.68 15.04Q159.50 15.67 159.38 16.31L159.38 16.31L159.38 16.31Q158.90 16.20 158.55 15.90L158.55 15.90L158.55 15.90Q158.20 15.61 157.89 15.08L157.89 15.08L157.89 15.08Q157.95 14.95 158.01 14.83L158.01 14.83L158.01 14.83Q158.07 14.71 158.17 14.50L158.17 14.50L158.17 14.50Q158.27 14.28 158.42 13.94L158.42 13.94L158.42 13.94Q158.56 13.61 158.81 13.05L158.81 13.05L158.81 13.05Q159.05 12.49 159.40 11.68L159.40 11.68L159.40 11.68Q159.74 10.86 160.23 9.70L160.23 9.70L160.23 9.70Q160.45 9.18 160.62 8.79L160.62 8.79L160.62 8.79Q160.78 8.40 160.90 8.04L160.90 8.04L160.90 8.04Q161.03 7.69 161.13 7.33L161.13 7.33L161.13 7.33Q161.24 6.97 161.35 6.51L161.35 6.51L161.35 6.51Q160.71 6.73 160.15 7.01L160.15 7.01L160.15 7.01Q159.60 7.28 159.24 7.59L159.24 7.59L159.24 7.59Q159.11 7.50 158.98 7.34L158.98 7.34L158.98 7.34Q158.84 7.17 158.73 6.96L158.73 6.96L158.73 6.96Q158.62 6.76 158.54 6.55L158.54 6.55L158.54 6.55Q158.45 6.34 158.44 6.17L158.44 6.17L158.44 6.17Q158.86 5.89 159.47 5.66L159.47 5.66L159.47 5.66Q160.08 5.42 160.76 5.24L160.76 5.24L160.76 5.24Q161.45 5.07 162.16 4.97L162.16 4.97L162.16 4.97Q162.88 4.87 163.49 4.87L163.49 4.87L163.49 4.87Q165.17 4.87 166.10 5.56L166.10 5.56L166.10 5.56Q167.02 6.26 167.02 7.46ZM163.44 6.02L163.60 6.29L163.60 6.29Q163.51 6.41 163.30 6.79L163.30 6.79L163.30 6.79Q163.09 7.17 162.81 7.69L162.81 7.69L162.81 7.69Q162.54 8.22 162.24 8.83L162.24 8.83L162.24 8.83Q161.94 9.45 161.66 10.05L161.66 10.05L161.66 10.05Q162.71 10.05 163.59 9.86L163.59 9.86L163.59 9.86Q164.47 9.66 165.12 9.30L165.12 9.30L165.12 9.30Q165.76 8.95 166.12 8.46L166.12 8.46L166.12 8.46Q166.47 7.98 166.47 7.39L166.47 7.39L166.47 7.39Q166.47 6.69 165.97 6.32L165.97 6.32L165.97 6.32Q165.47 5.95 164.42 5.95L164.42 5.95L164.42 5.95Q164.18 5.95 163.94 5.97L163.94 5.97L163.94 5.97Q163.70 5.99 163.44 6.02L163.44 6.02ZM189.97 14.36L189.97 14.36L189.97 14.36Q189.97 13.78 190.16 12.85L190.16 12.85L190.16 12.85Q190.36 11.93 190.68 10.88L190.68 10.88L190.68 10.88Q189.76 10.95 188.83 11.06L188.83 11.06L188.83 11.06Q187.89 11.17 187.21 11.19L187.21 11.19L187.21 11.19Q186.58 12.66 186.21 13.89L186.21 13.89L186.21 13.89Q185.84 15.13 185.63 16.31L185.63 16.31L185.63 16.31Q185.09 16.18 184.74 15.87L184.74 15.87L184.74 15.87Q184.39 15.55 184.10 15.08L184.10 15.08L184.10 15.08Q184.21 14.85 184.36 14.50L184.36 14.50L184.36 14.50Q184.51 14.15 184.71 13.66L184.71 13.66L184.71 13.66Q184.91 13.16 185.17 12.50L185.17 12.50L185.17 12.50Q185.43 11.83 185.77 10.95L185.77 10.95L185.77 10.95Q185.30 10.75 185.15 10.40L185.15 10.40L185.15 10.40Q185.22 10.35 185.47 10.28L185.47 10.28L185.47 10.28Q185.71 10.22 186.07 10.15L186.07 10.15L186.26 9.70L186.26 9.70Q186.55 8.95 186.74 8.43L186.74 8.43L186.74 8.43Q186.93 7.91 187.06 7.41L187.06 7.41L187.06 7.41Q187.19 6.92 187.31 6.31L187.31 6.31L187.31 6.31Q187.43 5.71 187.60 4.79L187.60 4.79L187.60 4.79Q188.19 4.90 188.67 5.31L188.67 5.31L188.67 5.31Q189.15 5.71 189.50 6.29L189.50 6.29L189.50 6.29Q189.38 6.45 189.20 6.79L189.20 6.79L189.20 6.79Q189.01 7.13 188.80 7.59L188.80 7.59L188.80 7.59Q188.58 8.06 188.33 8.64L188.33 8.64L188.33 8.64Q188.08 9.23 187.78 9.87L187.78 9.87L187.78 9.87Q188.65 9.76 189.54 9.66L189.54 9.66L189.54 9.66Q190.43 9.56 191.11 9.52L191.11 9.52L191.11 9.52Q191.37 8.79 191.64 8.10L191.64 8.10L191.64 8.10Q191.91 7.41 192.18 6.83L192.18 6.83L192.18 6.83Q192.44 6.26 192.69 5.82L192.69 5.82L192.69 5.82Q192.93 5.39 193.13 5.18L193.13 5.18L193.13 5.18Q193.27 5.19 193.50 5.29L193.50 5.29L193.50 5.29Q193.73 5.38 193.97 5.50L193.97 5.50L193.97 5.50Q194.21 5.63 194.40 5.78L194.40 5.78L194.40 5.78Q194.60 5.92 194.67 6.05L194.67 6.05L194.67 6.05Q194.42 6.29 194.17 6.66L194.17 6.66L194.17 6.66Q193.91 7.04 193.67 7.53L193.67 7.53L193.67 7.53Q193.42 8.02 193.19 8.60L193.19 8.60L193.19 8.60Q192.95 9.17 192.74 9.79L192.74 9.79L192.74 9.79Q193.02 10.04 193.02 10.42L193.02 10.42L193.02 10.42Q193.02 10.68 192.91 10.91L192.91 10.91L192.91 10.91Q192.78 10.88 192.65 10.87L192.65 10.87L192.65 10.87Q192.53 10.86 192.39 10.85L192.39 10.85L192.39 10.85Q192.15 11.61 191.95 12.35L191.95 12.35L191.95 12.35Q191.76 13.09 191.63 13.76L191.63 13.76L191.63 13.76Q191.49 14.43 191.42 14.99L191.42 14.99L191.42 14.99Q191.34 15.55 191.34 15.93L191.34 15.93L191.34 15.93Q191.34 16.07 191.35 16.16L191.35 16.16L191.35 16.16Q191.35 16.24 191.37 16.30L191.37 16.30L191.37 16.30Q191.06 16.28 190.92 16.19L190.92 16.19L190.92 16.19Q190.78 16.10 190.71 16.00L190.71 16.00L190.71 16.00Q190.64 15.89 190.58 15.79L190.58 15.79L190.58 15.79Q190.53 15.68 190.40 15.62L190.40 15.62L190.40 15.62Q190.30 15.58 190.22 15.43L190.22 15.43L190.22 15.43Q190.13 15.27 190.08 15.08L190.08 15.08L190.08 15.08Q190.02 14.88 189.99 14.69L189.99 14.69L189.99 14.69Q189.97 14.49 189.97 14.36ZM207.41 4.98L207.41 4.98L207.41 4.98Q207.68 5.10 207.96 5.27L207.96 5.27L207.96 5.27Q208.24 5.45 208.47 5.63L208.47 5.63L208.47 5.63Q208.71 5.81 208.87 5.98L208.87 5.98L208.87 5.98Q209.03 6.16 209.05 6.27L209.05 6.27L209.05 6.27Q208.81 6.22 208.57 6.20L208.57 6.20L208.57 6.20Q208.33 6.17 208.14 6.17L208.14 6.17L208.14 6.17Q207.51 6.17 206.88 6.48L206.88 6.48L206.88 6.48Q206.26 6.79 205.70 7.32L205.70 7.32L205.70 7.32Q205.14 7.85 204.67 8.57L204.67 8.57L204.67 8.57Q204.19 9.28 203.85 10.09L203.85 10.09L203.85 10.09Q203.50 10.91 203.31 11.77L203.31 11.77L203.31 11.77Q203.11 12.64 203.11 13.48L203.11 13.48L203.11 13.48Q203.11 14.57 203.48 15.11L203.48 15.11L203.48 15.11Q203.84 15.64 204.54 15.64L204.54 15.64L204.54 15.64Q204.88 15.64 205.27 15.51L205.27 15.51L205.27 15.51Q205.66 15.37 206.07 15.13L206.07 15.13L206.07 15.13Q206.47 14.90 206.86 14.56L206.86 14.56L206.86 14.56Q207.26 14.22 207.59 13.82L207.59 13.82L207.59 13.82Q208.08 13.23 208.47 12.48L208.47 12.48L208.47 12.48Q208.87 11.73 209.14 10.89L209.14 10.89L209.14 10.89Q209.41 10.05 209.56 9.16L209.56 9.16L209.56 9.16Q209.71 8.27 209.71 7.42L209.71 7.42L209.71 7.42Q209.71 7.08 209.69 6.85L209.69 6.85L209.69 6.85Q209.68 6.62 209.66 6.46L209.66 6.46L209.66 6.46Q209.64 6.30 209.62 6.20L209.62 6.20L209.62 6.20Q209.61 6.10 209.59 6.03L209.59 6.03L209.59 6.03Q209.76 6.12 209.97 6.24L209.97 6.24L209.97 6.24Q210.17 6.36 210.34 6.59L210.34 6.59L210.34 6.59Q210.52 6.82 210.64 7.20L210.64 7.20L210.64 7.20Q210.76 7.57 210.76 8.18L210.76 8.18L210.76 8.18Q210.76 9.16 210.53 10.10L210.53 10.10L210.53 10.10Q210.29 11.05 209.88 11.90L209.88 11.90L209.88 11.90Q209.47 12.75 208.91 13.50L208.91 13.50L208.91 13.50Q208.35 14.24 207.70 14.80L207.70 14.80L207.70 14.80Q206.86 15.54 205.91 15.95L205.91 15.95L205.91 15.95Q204.96 16.35 204.08 16.35L204.08 16.35L204.08 16.35Q202.79 16.35 202.11 15.53L202.11 15.53L202.11 15.53Q201.43 14.71 201.43 13.12L201.43 13.12L201.43 13.12Q201.43 12.26 201.62 11.31L201.62 11.31L201.62 11.31Q201.81 10.36 202.15 9.44L202.15 9.44L202.15 9.44Q202.50 8.51 202.97 7.68L202.97 7.68L202.97 7.68Q203.45 6.85 204.02 6.21L204.02 6.21L204.02 6.21Q204.58 5.57 205.23 5.19L205.23 5.19L205.23 5.19Q205.88 4.82 206.57 4.82L206.57 4.82L206.57 4.82Q206.79 4.82 206.99 4.85L206.99 4.85L206.99 4.85Q207.19 4.89 207.41 4.98ZM223.86 16.21L223.86 16.21L223.86 16.21Q223.83 16.23 223.80 16.23L223.80 16.23L223.80 16.23Q223.78 16.23 223.69 16.23L223.69 16.23L223.69 16.23Q223.50 16.23 223.24 16.16L223.24 16.16L223.24 16.16Q222.98 16.10 222.73 16.01L222.73 16.01L222.73 16.01Q222.49 15.92 222.31 15.81L222.31 15.81L222.31 15.81Q222.14 15.69 222.10 15.61L222.10 15.61L222.10 15.61Q222.08 15.41 222.08 15.20L222.08 15.20L222.08 15.20Q222.08 14.99 222.08 14.80L222.08 14.80L222.08 14.80Q222.08 13.23 222.31 11.52L222.31 11.52L222.31 11.52Q222.54 9.81 223.08 7.83L223.08 7.83L223.08 7.83Q223.13 7.63 223.19 7.33L223.19 7.33L223.19 7.33Q223.26 7.03 223.33 6.68L223.33 6.68L223.33 6.68Q222.99 6.94 222.53 7.53L222.53 7.53L222.53 7.53Q222.07 8.11 221.56 8.90L221.56 8.90L221.56 8.90Q221.05 9.69 220.53 10.63L220.53 10.63L220.53 10.63Q220.02 11.58 219.60 12.55L219.60 12.55L219.60 12.55Q219.18 13.52 218.88 14.48L218.88 14.48L218.88 14.48Q218.58 15.43 218.51 16.24L218.51 16.24L218.51 16.24Q217.84 16.04 217.58 15.85L217.58 15.85L217.58 15.85Q217.32 15.65 217.32 15.37L217.32 15.37L217.32 15.37Q217.32 15.12 217.48 14.66L217.48 14.66L217.48 14.66Q217.63 14.20 217.91 13.57L217.91 13.57L217.91 13.57Q218.19 12.94 218.60 12.16L218.60 12.16L218.60 12.16Q219.00 11.38 219.49 10.49L219.49 10.49L219.49 10.49Q220.05 9.46 220.59 8.57L220.59 8.57L220.59 8.57Q221.13 7.67 221.65 6.94L221.65 6.94L221.65 6.94Q222.17 6.22 222.66 5.68L222.66 5.68L222.66 5.68Q223.16 5.15 223.65 4.87L223.65 4.87L223.65 4.87Q223.85 4.87 224.17 4.97L224.17 4.97L224.17 4.97Q224.50 5.07 224.82 5.21L224.82 5.21L224.82 5.21Q225.13 5.35 225.38 5.49L225.38 5.49L225.38 5.49Q225.62 5.64 225.65 5.74L225.65 5.74L225.65 5.74Q225.46 6.13 225.19 6.92L225.19 6.92L225.19 6.92Q224.92 7.70 224.65 8.69L224.65 8.69L224.65 8.69Q224.38 9.69 224.13 10.80L224.13 10.80L224.13 10.80Q223.89 11.91 223.75 12.94L223.75 12.94L223.75 12.94Q224.07 12.17 224.50 11.33L224.50 11.33L224.50 11.33Q224.92 10.50 225.40 9.68L225.40 9.68L225.40 9.68Q225.88 8.86 226.37 8.09L226.37 8.09L226.37 8.09Q226.87 7.32 227.35 6.69L227.35 6.69L227.35 6.69Q227.82 6.05 228.23 5.57L228.23 5.57L228.23 5.57Q228.65 5.10 228.97 4.87L228.97 4.87L228.97 4.87Q229.17 4.87 229.49 4.97L229.49 4.97L229.49 4.97Q229.82 5.07 230.14 5.21L230.14 5.21L230.14 5.21Q230.45 5.35 230.70 5.49L230.70 5.49L230.70 5.49Q230.94 5.64 230.97 5.74L230.97 5.74L230.97 5.74Q230.52 6.54 230.19 7.69L230.19 7.69L230.19 7.69Q229.85 8.83 229.62 10.09L229.62 10.09L229.62 10.09Q229.39 11.35 229.27 12.59L229.27 12.59L229.27 12.59Q229.15 13.83 229.15 14.81L229.15 14.81L229.15 14.81Q229.15 15.13 229.15 15.48L229.15 15.48L229.15 15.48Q229.15 15.83 229.18 16.21L229.18 16.21L229.18 16.21Q228.98 16.21 228.71 16.16L228.71 16.16L228.71 16.16Q228.44 16.11 228.18 16.03L228.18 16.03L228.18 16.03Q227.92 15.95 227.71 15.84L227.71 15.84L227.71 15.84Q227.50 15.74 227.42 15.61L227.42 15.61L227.42 15.61Q227.40 15.41 227.40 15.20L227.40 15.20L227.40 15.20Q227.40 14.99 227.40 14.80L227.40 14.80L227.40 14.80Q227.40 13.23 227.63 11.52L227.63 11.52L227.63 11.52Q227.86 9.81 228.40 7.83L228.40 7.83L228.40 7.83Q228.45 7.63 228.52 7.29L228.52 7.29L228.52 7.29Q228.59 6.96 228.66 6.59L228.66 6.59L228.66 6.59Q228.27 6.79 227.77 7.34L227.77 7.34L227.77 7.34Q227.28 7.90 226.76 8.69L226.76 8.69L226.76 8.69Q226.25 9.48 225.76 10.44L225.76 10.44L225.76 10.44Q225.26 11.41 224.86 12.41L224.86 12.41L224.86 12.41Q224.46 13.41 224.19 14.40L224.19 14.40L224.19 14.40Q223.92 15.39 223.86 16.21ZM243.92 9.21L243.92 9.21L243.92 9.21Q244.38 9.21 244.64 9.46L244.64 9.46L244.64 9.46Q244.90 9.72 244.90 10.16L244.90 10.16L244.90 10.16Q244.90 10.28 244.88 10.39L244.88 10.39L244.88 10.39Q244.86 10.51 244.83 10.60L244.83 10.60L244.83 10.60Q244.65 10.57 244.43 10.55L244.43 10.55L244.43 10.55Q244.20 10.53 243.89 10.53L243.89 10.53L243.89 10.53Q243.29 10.53 242.68 10.63L242.68 10.63L242.68 10.63Q242.06 10.74 241.50 10.81L241.50 10.81L241.50 10.81Q241.18 11.55 240.91 12.24L240.91 12.24L240.91 12.24Q240.65 12.94 240.46 13.51L240.46 13.51L240.46 13.51Q240.27 14.08 240.16 14.50L240.16 14.50L240.16 14.50Q240.06 14.92 240.04 15.13L240.04 15.13L240.04 15.13Q241.18 14.90 242.33 14.73L242.33 14.73L242.33 14.73Q243.49 14.56 244.76 14.48L244.76 14.48L244.76 14.48Q244.92 14.71 245.02 14.99L245.02 14.99L245.02 14.99Q245.13 15.27 245.13 15.60L245.13 15.60L245.13 15.60Q245.13 15.68 245.13 15.78L245.13 15.78L245.13 15.78Q245.13 15.88 245.10 15.97L245.10 15.97L245.10 15.97Q244.71 15.96 244.27 15.95L244.27 15.95L244.27 15.95Q243.84 15.95 243.14 15.95L243.14 15.95L243.14 15.95Q242.68 15.95 242.26 15.97L242.26 15.97L242.26 15.97Q241.85 15.99 241.43 16.03L241.43 16.03L241.43 16.03Q241.01 16.07 240.54 16.14L240.54 16.14L240.54 16.14Q240.07 16.21 239.48 16.31L239.48 16.31L239.48 16.31Q238.84 16.06 238.24 15.08L238.24 15.08L238.24 15.08Q238.48 14.57 238.90 13.54L238.90 13.54L238.90 13.54Q239.33 12.52 239.99 10.79L239.99 10.79L239.99 10.79Q239.36 10.60 239.16 10.09L239.16 10.09L239.16 10.09Q239.23 10.02 239.57 9.92L239.57 9.92L239.57 9.92Q239.90 9.81 240.39 9.70L240.39 9.70L240.39 9.70Q240.60 9.16 240.75 8.75L240.75 8.75L240.75 8.75Q240.90 8.34 241.01 7.99L241.01 7.99L241.01 7.99Q241.12 7.63 241.21 7.29L241.21 7.29L241.21 7.29Q241.30 6.94 241.39 6.54L241.39 6.54L241.39 6.54Q240.90 6.51 240.62 6.27L240.62 6.27L240.62 6.27Q240.34 6.02 240.34 5.63L240.34 5.63L240.34 5.63Q240.34 5.52 240.37 5.36L240.37 5.36L240.37 5.36Q240.41 5.21 240.45 5.10L240.45 5.10L240.45 5.10Q240.73 5.14 240.99 5.15L240.99 5.15L240.99 5.15Q241.25 5.17 241.67 5.17L241.67 5.17L241.67 5.17Q242.55 5.17 243.32 5.12L243.32 5.12L243.32 5.12Q244.09 5.07 244.71 5.01L244.71 5.01L244.71 5.01Q245.34 4.96 245.78 4.91L245.78 4.91L245.78 4.91Q246.23 4.86 246.47 4.86L246.47 4.86L246.47 4.86Q246.79 4.86 247.04 5.19L247.04 5.19L247.04 5.19Q247.30 5.53 247.42 6.15L247.42 6.15L247.42 6.15Q246.99 6.10 246.71 6.09L246.71 6.09L246.71 6.09Q246.44 6.08 246.23 6.08L246.23 6.08L246.23 6.08Q245.46 6.08 244.82 6.15L244.82 6.15L244.82 6.15Q244.19 6.23 243.60 6.31L243.60 6.31L243.60 6.31Q243.52 6.44 243.41 6.64L243.41 6.64L243.41 6.64Q243.31 6.83 243.14 7.18L243.14 7.18L243.14 7.18Q242.97 7.53 242.72 8.06L242.72 8.06L242.72 8.06Q242.48 8.60 242.13 9.39L242.13 9.39L242.13 9.39Q242.66 9.31 243.13 9.26L243.13 9.26L243.13 9.26Q243.60 9.21 243.92 9.21ZM270.45 4.98L270.45 4.98L270.45 4.98Q270.72 5.10 271.00 5.27L271.00 5.27L271.00 5.27Q271.28 5.45 271.52 5.63L271.52 5.63L271.52 5.63Q271.75 5.81 271.91 5.98L271.91 5.98L271.91 5.98Q272.08 6.16 272.09 6.27L272.09 6.27L272.09 6.27Q271.85 6.22 271.61 6.20L271.61 6.20L271.61 6.20Q271.38 6.17 271.18 6.17L271.18 6.17L271.18 6.17Q270.55 6.17 269.93 6.48L269.93 6.48L269.93 6.48Q269.30 6.79 268.74 7.32L268.74 7.32L268.74 7.32Q268.18 7.85 267.71 8.57L267.71 8.57L267.71 8.57Q267.23 9.28 266.89 10.09L266.89 10.09L266.89 10.09Q266.55 10.91 266.35 11.77L266.35 11.77L266.35 11.77Q266.15 12.64 266.15 13.48L266.15 13.48L266.15 13.48Q266.15 14.57 266.52 15.11L266.52 15.11L266.52 15.11Q266.88 15.64 267.58 15.64L267.58 15.64L267.58 15.64Q267.92 15.64 268.31 15.51L268.31 15.51L268.31 15.51Q268.70 15.37 269.11 15.13L269.11 15.13L269.11 15.13Q269.51 14.90 269.91 14.56L269.91 14.56L269.91 14.56Q270.30 14.22 270.63 13.82L270.63 13.82L270.63 13.82Q271.12 13.23 271.52 12.48L271.52 12.48L271.52 12.48Q271.91 11.73 272.18 10.89L272.18 10.89L272.18 10.89Q272.45 10.05 272.60 9.16L272.60 9.16L272.60 9.16Q272.75 8.27 272.75 7.42L272.75 7.42L272.75 7.42Q272.75 7.08 272.73 6.85L272.73 6.85L272.73 6.85Q272.72 6.62 272.70 6.46L272.70 6.46L272.70 6.46Q272.68 6.30 272.66 6.20L272.66 6.20L272.66 6.20Q272.65 6.10 272.64 6.03L272.64 6.03L272.64 6.03Q272.80 6.12 273.01 6.24L273.01 6.24L273.01 6.24Q273.21 6.36 273.38 6.59L273.38 6.59L273.38 6.59Q273.56 6.82 273.68 7.20L273.68 7.20L273.68 7.20Q273.80 7.57 273.80 8.18L273.80 8.18L273.80 8.18Q273.80 9.16 273.57 10.10L273.57 10.10L273.57 10.10Q273.34 11.05 272.92 11.90L272.92 11.90L272.92 11.90Q272.51 12.75 271.95 13.50L271.95 13.50L271.95 13.50Q271.39 14.24 270.75 14.80L270.75 14.80L270.75 14.80Q269.91 15.54 268.95 15.95L268.95 15.95L268.95 15.95Q268.00 16.35 267.12 16.35L267.12 16.35L267.12 16.35Q265.83 16.35 265.15 15.53L265.15 15.53L265.15 15.53Q264.47 14.71 264.47 13.12L264.47 13.12L264.47 13.12Q264.47 12.26 264.66 11.31L264.66 11.31L264.66 11.31Q264.85 10.36 265.19 9.44L265.19 9.44L265.19 9.44Q265.54 8.51 266.01 7.68L266.01 7.68L266.01 7.68Q266.49 6.85 267.06 6.21L267.06 6.21L267.06 6.21Q267.62 5.57 268.27 5.19L268.27 5.19L268.27 5.19Q268.93 4.82 269.61 4.82L269.61 4.82L269.61 4.82Q269.84 4.82 270.03 4.85L270.03 4.85L270.03 4.85Q270.23 4.89 270.45 4.98ZM290.64 7.46L290.64 7.46L290.64 7.46Q290.64 8.13 290.34 8.73L290.34 8.73L290.34 8.73Q290.04 9.32 289.51 9.79L289.51 9.79L289.51 9.79Q288.97 10.26 288.26 10.58L288.26 10.58L288.26 10.58Q287.55 10.91 286.71 11.02L286.71 11.02L286.71 11.02Q286.92 11.65 287.22 12.31L287.22 12.31L287.22 12.31Q287.52 12.98 287.87 13.59L287.87 13.59L287.87 13.59Q288.22 14.21 288.60 14.73L288.60 14.73L288.60 14.73Q288.97 15.25 289.34 15.58L289.34 15.58L289.34 15.58Q289.27 15.72 289.13 15.86L289.13 15.86L289.13 15.86Q289.00 16.00 288.83 16.12L288.83 16.12L288.83 16.12Q288.65 16.24 288.46 16.32L288.46 16.32L288.46 16.32Q288.27 16.39 288.11 16.39L288.11 16.39L288.11 16.39Q287.80 16.39 287.52 16.10L287.52 16.10L287.52 16.10Q287.24 15.81 286.95 15.17L286.95 15.17L286.95 15.17Q286.66 14.53 286.35 13.52L286.35 13.52L286.35 13.52Q286.03 12.50 285.66 11.07L285.66 11.07L285.66 11.07Q285.50 11.07 285.35 11.07L285.35 11.07L285.35 11.07Q285.19 11.07 285.11 11.05L285.11 11.05L285.11 11.05Q285.01 10.99 284.90 10.85L284.90 10.85L284.90 10.85Q284.52 11.66 284.23 12.38L284.23 12.38L284.23 12.38Q283.93 13.09 283.70 13.76L283.70 13.76L283.70 13.76Q283.47 14.42 283.30 15.04L283.30 15.04L283.30 15.04Q283.12 15.67 283.00 16.31L283.00 16.31L283.00 16.31Q282.52 16.20 282.17 15.90L282.17 15.90L282.17 15.90Q281.82 15.61 281.51 15.08L281.51 15.08L281.51 15.08Q281.57 14.95 281.63 14.83L281.63 14.83L281.63 14.83Q281.69 14.71 281.79 14.50L281.79 14.50L281.79 14.50Q281.89 14.28 282.04 13.94L282.04 13.94L282.04 13.94Q282.18 13.61 282.43 13.05L282.43 13.05L282.43 13.05Q282.67 12.49 283.02 11.68L283.02 11.68L283.02 11.68Q283.36 10.86 283.85 9.70L283.85 9.70L283.85 9.70Q284.07 9.18 284.23 8.79L284.23 8.79L284.23 8.79Q284.40 8.40 284.52 8.04L284.52 8.04L284.52 8.04Q284.65 7.69 284.75 7.33L284.75 7.33L284.75 7.33Q284.86 6.97 284.97 6.51L284.97 6.51L284.97 6.51Q284.33 6.73 283.77 7.01L283.77 7.01L283.77 7.01Q283.22 7.28 282.86 7.59L282.86 7.59L282.86 7.59Q282.73 7.50 282.60 7.34L282.60 7.34L282.60 7.34Q282.46 7.17 282.35 6.96L282.35 6.96L282.35 6.96Q282.24 6.76 282.16 6.55L282.16 6.55L282.16 6.55Q282.07 6.34 282.06 6.17L282.06 6.17L282.06 6.17Q282.48 5.89 283.09 5.66L283.09 5.66L283.09 5.66Q283.70 5.42 284.38 5.24L284.38 5.24L284.38 5.24Q285.07 5.07 285.78 4.97L285.78 4.97L285.78 4.97Q286.50 4.87 287.11 4.87L287.11 4.87L287.11 4.87Q288.79 4.87 289.72 5.56L289.72 5.56L289.72 5.56Q290.64 6.26 290.64 7.46ZM287.06 6.02L287.22 6.29L287.22 6.29Q287.13 6.41 286.92 6.79L286.92 6.79L286.92 6.79Q286.71 7.17 286.43 7.69L286.43 7.69L286.43 7.69Q286.16 8.22 285.86 8.83L285.86 8.83L285.86 8.83Q285.56 9.45 285.28 10.05L285.28 10.05L285.28 10.05Q286.33 10.05 287.21 9.86L287.21 9.86L287.21 9.86Q288.09 9.66 288.74 9.30L288.74 9.30L288.74 9.30Q289.38 8.95 289.74 8.46L289.74 8.46L289.74 8.46Q290.09 7.98 290.09 7.39L290.09 7.39L290.09 7.39Q290.09 6.69 289.59 6.32L289.59 6.32L289.59 6.32Q289.09 5.95 288.04 5.95L288.04 5.95L288.04 5.95Q287.80 5.95 287.56 5.97L287.56 5.97L287.56 5.97Q287.32 5.99 287.06 6.02L287.06 6.02ZM317.77 7.46L317.77 7.46L317.77 7.46Q317.77 8.33 317.30 9.01L317.30 9.01L317.30 9.01Q316.82 9.69 315.99 10.14L315.99 10.14L315.99 10.14Q316.53 10.50 316.84 11.03L316.84 11.03L316.84 11.03Q317.16 11.55 317.16 12.18L317.16 12.18L317.16 12.18Q317.16 12.94 316.70 13.67L316.70 13.67L316.70 13.67Q316.25 14.41 315.49 14.97L315.49 14.97L315.49 14.97Q314.73 15.54 313.77 15.89L313.77 15.89L313.77 15.89Q312.80 16.24 311.79 16.24L311.79 16.24L311.79 16.24Q310.70 16.24 309.88 15.83L309.88 15.83L309.88 15.83Q309.06 15.41 308.60 14.66L308.60 14.66L308.60 14.66Q308.74 14.24 308.97 13.62L308.97 13.62L308.97 13.62Q309.20 12.99 309.48 12.30L309.48 12.30L309.48 12.30Q309.76 11.61 310.05 10.92L310.05 10.92L310.05 10.92Q310.34 10.23 310.59 9.69L310.59 9.69L310.59 9.69Q311.12 8.50 311.54 7.71L311.54 7.71L311.54 7.71Q311.96 6.93 312.31 6.47L312.31 6.47L312.31 6.47Q311.54 6.71 310.91 7.01L310.91 7.01L310.91 7.01Q310.28 7.31 309.99 7.59L309.99 7.59L309.99 7.59Q309.86 7.50 309.73 7.34L309.73 7.34L309.73 7.34Q309.60 7.17 309.48 6.96L309.48 6.96L309.48 6.96Q309.36 6.76 309.28 6.55L309.28 6.55L309.28 6.55Q309.20 6.34 309.19 6.17L309.19 6.17L309.19 6.17Q309.55 5.92 310.13 5.69L310.13 5.69L310.13 5.69Q310.72 5.46 311.40 5.29L311.40 5.29L311.40 5.29Q312.09 5.12 312.81 5.03L312.81 5.03L312.81 5.03Q313.53 4.93 314.19 4.93L314.19 4.93L314.19 4.93Q315.87 4.93 316.82 5.60L316.82 5.60L316.82 5.60Q317.77 6.27 317.77 7.46ZM312.44 10.81L312.44 10.81L312.44 10.81Q312.17 10.68 311.95 10.43L311.95 10.43L311.95 10.43Q311.63 11.14 311.34 11.83L311.34 11.83L311.34 11.83Q311.05 12.52 310.83 13.10L310.83 13.10L310.83 13.10Q310.60 13.69 310.46 14.13L310.46 14.13L310.46 14.13Q310.32 14.56 310.31 14.76L310.31 14.76L310.31 14.76Q310.51 14.87 310.78 14.92L310.78 14.92L310.78 14.92Q311.05 14.98 311.46 14.98L311.46 14.98L311.46 14.98Q312.41 14.98 313.28 14.71L313.28 14.71L313.28 14.71Q314.15 14.45 314.80 13.99L314.80 13.99L314.80 13.99Q315.46 13.54 315.85 12.95L315.85 12.95L315.85 12.95Q316.25 12.36 316.25 11.72L316.25 11.72L316.25 11.72Q316.25 10.79 315.45 10.39L315.45 10.39L315.45 10.39Q314.36 10.84 312.98 10.84L312.98 10.84L312.98 10.84Q312.79 10.84 312.68 10.84L312.68 10.84L312.68 10.84Q312.58 10.84 312.44 10.81ZM315.15 5.95L315.15 5.95L315.15 5.95Q314.86 5.95 314.53 5.98L314.53 5.98L314.53 5.98Q314.20 6.02 313.84 6.09L313.84 6.09L313.84 6.09Q313.89 6.15 313.93 6.21L313.93 6.21L313.93 6.21Q313.96 6.27 313.99 6.34L313.99 6.34L313.99 6.34Q313.87 6.51 313.68 6.83L313.68 6.83L313.68 6.83Q313.50 7.15 313.28 7.58L313.28 7.58L313.28 7.58Q313.05 8.01 312.81 8.53L312.81 8.53L312.81 8.53Q312.56 9.04 312.31 9.59L312.31 9.59L312.31 9.59Q312.55 9.53 312.89 9.50L312.89 9.50L312.89 9.50Q313.24 9.46 313.57 9.46L313.57 9.46L313.57 9.46Q313.75 9.46 313.93 9.48L313.93 9.48L313.93 9.48Q314.10 9.49 314.27 9.52L314.27 9.52L314.27 9.52Q314.94 9.41 315.48 9.19L315.48 9.19L315.48 9.19Q316.02 8.97 316.41 8.69L316.41 8.69L316.41 8.69Q316.81 8.40 317.02 8.05L317.02 8.05L317.02 8.05Q317.23 7.70 317.23 7.31L317.23 7.31L317.23 7.31Q317.23 6.64 316.69 6.29L316.69 6.29L316.69 6.29Q316.16 5.95 315.15 5.95ZM330.57 5.75L330.57 5.75L330.57 5.75Q329.95 6.58 329.45 7.57L329.45 7.57L329.45 7.57Q328.94 8.57 328.59 9.61L328.59 9.61L328.59 9.61Q328.23 10.65 328.04 11.67L328.04 11.67L328.04 11.67Q327.85 12.68 327.85 13.57L327.85 13.57L327.85 13.57Q327.85 14.66 328.17 15.15L328.17 15.15L328.17 15.15Q328.50 15.64 329.28 15.64L329.28 15.64L329.28 15.64Q330.19 15.64 330.88 15.00L330.88 15.00L330.88 15.00Q331.56 14.36 332.16 13.24L332.16 13.24L332.16 13.24Q332.56 12.52 332.84 11.65L332.84 11.65L332.84 11.65Q333.12 10.78 333.29 9.86L333.29 9.86L333.29 9.86Q333.47 8.95 333.55 8.02L333.55 8.02L333.55 8.02Q333.63 7.08 333.63 6.23L333.63 6.23L333.63 6.23Q333.63 5.68 333.62 5.43L333.62 5.43L333.62 5.43Q333.61 5.18 333.58 5.03L333.58 5.03L333.58 5.03Q333.62 5.03 333.79 5.05L333.79 5.05L333.79 5.05Q333.96 5.08 334.17 5.12L334.17 5.12L334.17 5.12Q334.39 5.17 334.61 5.24L334.61 5.24L334.61 5.24Q334.82 5.31 334.98 5.39L334.98 5.39L334.98 5.39Q334.91 6.45 334.72 7.59L334.72 7.59L334.72 7.59Q334.53 8.72 334.22 9.83L334.22 9.83L334.22 9.83Q333.91 10.93 333.51 11.96L333.51 11.96L333.51 11.96Q333.10 12.98 332.60 13.79L332.60 13.79L332.60 13.79Q331.86 14.99 330.93 15.67L330.93 15.67L330.93 15.67Q330.01 16.35 328.75 16.35L328.75 16.35L328.75 16.35Q327.46 16.35 326.75 15.60L326.75 15.60L326.75 15.60Q326.03 14.85 326.03 13.33L326.03 13.33L326.03 13.33Q326.03 12.45 326.23 11.33L326.23 11.33L326.23 11.33Q326.42 10.22 326.75 9.07L326.75 9.07L326.75 9.07Q327.08 7.91 327.52 6.81L327.52 6.81L327.52 6.81Q327.95 5.71 328.43 4.84L328.43 4.84L328.43 4.84Q328.66 4.86 328.99 4.94L328.99 4.94L328.99 4.94Q329.31 5.03 329.62 5.16L329.62 5.16L329.62 5.16Q329.92 5.29 330.18 5.45L330.18 5.45L330.18 5.45Q330.44 5.61 330.57 5.75ZM351.08 5.74L351.08 5.74L351.08 5.74Q351.12 5.98 351.14 6.07L351.14 6.07L351.14 6.07Q351.16 6.16 351.16 6.31L351.16 6.31L351.16 6.31Q351.16 6.78 350.96 7.18L350.96 7.18L350.96 7.18Q350.76 7.57 350.41 7.74L350.41 7.74L350.41 7.74Q350.13 7.36 349.72 7.09L349.72 7.09L349.72 7.09Q349.31 6.82 348.83 6.64L348.83 6.64L348.83 6.64Q348.35 6.47 347.83 6.38L347.83 6.38L347.83 6.38Q347.31 6.30 346.82 6.30L346.82 6.30L346.82 6.30Q346.33 6.30 345.90 6.38L345.90 6.38L345.90 6.38Q345.48 6.45 345.15 6.59L345.15 6.59L345.15 6.59Q344.82 6.72 344.63 6.92L344.63 6.92L344.63 6.92Q344.44 7.11 344.44 7.36L344.44 7.36L344.44 7.36Q344.48 7.67 344.82 7.99L344.82 7.99L344.82 7.99Q345.16 8.30 345.65 8.60L345.65 8.60L345.65 8.60Q346.14 8.90 346.73 9.20L346.73 9.20L346.73 9.20Q347.33 9.49 347.90 9.76L347.90 9.76L347.90 9.76Q348.61 10.09 349.13 10.38L349.13 10.38L349.13 10.38Q349.65 10.67 349.99 11.01L349.99 11.01L349.99 11.01Q350.32 11.35 350.49 11.79L350.49 11.79L350.49 11.79Q350.66 12.22 350.66 12.84L350.66 12.84L350.66 12.84Q350.66 13.55 350.42 14.18L350.42 14.18L350.42 14.18Q350.18 14.80 349.73 15.26L349.73 15.26L349.73 15.26Q349.27 15.72 348.63 15.98L348.63 15.98L348.63 15.98Q347.98 16.24 347.19 16.24L347.19 16.24L347.19 16.24Q346.40 16.24 345.49 16.00L345.49 16.00L345.49 16.00Q344.58 15.76 343.79 15.35L343.79 15.35L343.79 15.35Q343.00 14.94 342.47 14.40L342.47 14.40L342.47 14.40Q341.95 13.86 341.95 13.26L341.95 13.26L341.95 13.26Q341.95 12.98 342.11 12.54L342.11 12.54L342.11 12.54Q342.27 12.11 342.69 11.63L342.69 11.63L342.69 11.63Q342.73 12.05 343.15 12.63L343.15 12.63L343.15 12.63Q343.56 13.20 344.39 13.69L344.39 13.69L344.39 13.69Q345.16 14.14 345.97 14.34L345.97 14.34L345.97 14.34Q346.79 14.55 347.51 14.55L347.51 14.55L347.51 14.55Q348.29 14.55 348.78 14.35L348.78 14.35L348.78 14.35Q349.27 14.15 349.55 13.88L349.55 13.88L349.55 13.88Q349.83 13.61 349.94 13.33L349.94 13.33L349.94 13.33Q350.06 13.05 350.07 12.88L350.07 12.88L350.07 12.88Q350.06 12.60 349.81 12.34L349.81 12.34L349.81 12.34Q349.57 12.08 349.15 11.84L349.15 11.84L349.15 11.84Q348.74 11.59 348.19 11.34L348.19 11.34L348.19 11.34Q347.65 11.09 347.06 10.84L347.06 10.84L347.06 10.84Q346.18 10.44 345.54 10.10L345.54 10.10L345.54 10.10Q344.90 9.76 344.49 9.40L344.49 9.40L344.49 9.40Q344.08 9.04 343.89 8.65L343.89 8.65L343.89 8.65Q343.70 8.26 343.70 7.76L343.70 7.76L343.70 7.76Q343.70 6.97 344.18 6.27L344.18 6.27L344.18 6.27Q344.65 5.57 345.55 5.21L345.55 5.21L345.55 5.21Q346.00 5.01 346.51 4.93L346.51 4.93L346.51 4.93Q347.02 4.84 347.51 4.84L347.51 4.84L347.51 4.84Q348.43 4.84 349.31 5.10L349.31 5.10L349.31 5.10Q350.20 5.35 351.08 5.74ZM359.20 14.38L359.20 14.38L359.20 14.38Q359.20 13.87 359.36 13.07L359.36 13.07L359.36 13.07Q359.52 12.26 359.78 11.33L359.78 11.33L359.78 11.33Q360.04 10.40 360.37 9.43L360.37 9.43L360.37 9.43Q360.71 8.46 361.06 7.60L361.06 7.60L361.06 7.60Q361.41 6.75 361.75 6.10L361.75 6.10L361.75 6.10Q362.08 5.46 362.35 5.18L362.35 5.18L362.35 5.18Q362.49 5.19 362.72 5.29L362.72 5.29L362.72 5.29Q362.95 5.38 363.19 5.50L363.19 5.50L363.19 5.50Q363.43 5.63 363.62 5.78L363.62 5.78L363.62 5.78Q363.82 5.92 363.87 6.05L363.87 6.05L363.87 6.05Q363.47 6.41 363.07 7.15L363.07 7.15L363.07 7.15Q362.67 7.88 362.30 8.82L362.30 8.82L362.30 8.82Q361.93 9.76 361.61 10.80L361.61 10.80L361.61 10.80Q361.28 11.84 361.05 12.82L361.05 12.82L361.05 12.82Q360.81 13.80 360.67 14.64L360.67 14.64L360.67 14.64Q360.54 15.48 360.54 16.00L360.54 16.00L360.54 16.00Q360.54 16.24 360.58 16.30L360.58 16.30L360.58 16.30Q360.28 16.28 360.14 16.19L360.14 16.19L360.14 16.19Q360.00 16.10 359.92 16.00L359.92 16.00L359.92 16.00Q359.84 15.89 359.78 15.79L359.78 15.79L359.78 15.79Q359.72 15.68 359.59 15.62L359.59 15.62L359.59 15.62Q359.49 15.58 359.42 15.43L359.42 15.43L359.42 15.43Q359.35 15.27 359.30 15.09L359.30 15.09L359.30 15.09Q359.25 14.90 359.23 14.70L359.23 14.70L359.23 14.70Q359.20 14.50 359.20 14.38ZM371.43 16.24L371.43 16.24L371.43 16.24Q370.64 16.00 370.36 15.79L370.36 15.79L370.36 15.79Q370.08 15.57 370.08 15.19L370.08 15.19L370.08 15.19Q370.08 14.77 370.27 14.01L370.27 14.01L370.27 14.01Q370.47 13.24 370.78 12.31L370.78 12.31L370.78 12.31Q371.10 11.37 371.50 10.35L371.50 10.35L371.50 10.35Q371.91 9.32 372.33 8.39L372.33 8.39L372.33 8.39Q372.75 7.45 373.15 6.67L373.15 6.67L373.15 6.67Q373.55 5.89 373.86 5.46L373.86 5.46L373.76 4.87L373.76 4.87Q373.95 4.87 374.30 4.97L374.30 4.97L374.30 4.97Q374.65 5.07 375.01 5.21L375.01 5.21L375.01 5.21Q375.37 5.35 375.64 5.49L375.64 5.49L375.64 5.49Q375.91 5.64 375.94 5.74L375.94 5.74L375.94 5.74Q375.87 6.08 375.83 6.76L375.83 6.76L375.83 6.76Q375.79 7.43 375.79 8.20L375.79 8.20L375.79 8.20Q375.79 9.73 375.91 11.19L375.91 11.19L375.91 11.19Q376.03 12.66 376.46 14.17L376.46 14.17L376.46 14.17Q376.68 13.05 376.94 11.94L376.94 11.94L376.94 11.94Q377.20 10.82 377.48 9.81L377.48 9.81L377.48 9.81Q377.76 8.79 378.04 7.92L378.04 7.92L378.04 7.92Q378.32 7.06 378.58 6.40L378.58 6.40L378.58 6.40Q378.84 5.75 379.06 5.38L379.06 5.38L379.06 5.38Q379.29 5.01 379.47 4.98L379.47 4.98L379.47 4.98Q379.62 5.01 379.81 5.10L379.81 5.10L379.81 5.10Q379.99 5.19 380.16 5.32L380.16 5.32L380.16 5.32Q380.32 5.45 380.46 5.60L380.46 5.60L380.46 5.60Q380.60 5.75 380.69 5.91L380.69 5.91L380.69 5.91Q380.24 6.09 379.80 6.76L379.80 6.76L379.80 6.76Q379.36 7.43 378.96 8.39L378.96 8.39L378.96 8.39Q378.56 9.35 378.22 10.47L378.22 10.47L378.22 10.47Q377.87 11.59 377.61 12.68L377.61 12.68L377.61 12.68Q377.36 13.76 377.21 14.69L377.21 14.69L377.21 14.69Q377.06 15.61 377.05 16.17L377.05 16.17L377.05 16.17Q377.05 16.20 377.06 16.21L377.06 16.21L377.06 16.21Q377.02 16.23 376.97 16.23L376.97 16.23L376.97 16.23Q376.92 16.23 376.88 16.23L376.88 16.23L376.88 16.23Q376.24 16.23 375.74 16.07L375.74 16.07L375.74 16.07Q375.24 15.90 375.09 15.61L375.09 15.61L375.09 15.61Q374.79 14.43 374.60 13.34L374.60 13.34L374.60 13.34Q374.40 12.25 374.27 11.16L374.27 11.16L374.27 11.16Q374.14 10.07 374.06 8.95L374.06 8.95L374.06 8.95Q373.98 7.84 373.94 6.62L373.94 6.62L373.94 6.62Q373.67 7.04 373.38 7.72L373.38 7.72L373.38 7.72Q373.09 8.40 372.81 9.21L372.81 9.21L372.81 9.21Q372.53 10.02 372.27 10.92L372.27 10.92L372.27 10.92Q372.01 11.82 371.81 12.67L371.81 12.67L371.81 12.67Q371.62 13.52 371.50 14.29L371.50 14.29L371.50 14.29Q371.39 15.05 371.39 15.61L371.39 15.61L371.39 15.61Q371.39 15.90 371.40 16.03L371.40 16.03L371.40 16.03Q371.41 16.16 371.43 16.24ZM392.53 9.21L392.53 9.21L392.53 9.21Q392.99 9.21 393.25 9.46L393.25 9.46L393.25 9.46Q393.51 9.72 393.51 10.16L393.51 10.16L393.51 10.16Q393.51 10.28 393.49 10.39L393.49 10.39L393.49 10.39Q393.47 10.51 393.44 10.60L393.44 10.60L393.44 10.60Q393.26 10.57 393.04 10.55L393.04 10.55L393.04 10.55Q392.81 10.53 392.50 10.53L392.50 10.53L392.50 10.53Q391.90 10.53 391.29 10.63L391.29 10.63L391.29 10.63Q390.67 10.74 390.11 10.81L390.11 10.81L390.11 10.81Q389.79 11.55 389.52 12.24L389.52 12.24L389.52 12.24Q389.26 12.94 389.07 13.51L389.07 13.51L389.07 13.51Q388.88 14.08 388.77 14.50L388.77 14.50L388.77 14.50Q388.67 14.92 388.65 15.13L388.65 15.13L388.65 15.13Q389.79 14.90 390.94 14.73L390.94 14.73L390.94 14.73Q392.10 14.56 393.37 14.48L393.37 14.48L393.37 14.48Q393.53 14.71 393.63 14.99L393.63 14.99L393.63 14.99Q393.74 15.27 393.74 15.60L393.74 15.60L393.74 15.60Q393.74 15.68 393.74 15.78L393.74 15.78L393.74 15.78Q393.74 15.88 393.71 15.97L393.71 15.97L393.71 15.97Q393.32 15.96 392.88 15.95L392.88 15.95L392.88 15.95Q392.45 15.95 391.75 15.95L391.75 15.95L391.75 15.95Q391.29 15.95 390.87 15.97L390.87 15.97L390.87 15.97Q390.46 15.99 390.04 16.03L390.04 16.03L390.04 16.03Q389.62 16.07 389.15 16.14L389.15 16.14L389.15 16.14Q388.68 16.21 388.09 16.31L388.09 16.31L388.09 16.31Q387.45 16.06 386.85 15.08L386.85 15.08L386.85 15.08Q387.09 14.57 387.51 13.54L387.51 13.54L387.51 13.54Q387.94 12.52 388.60 10.79L388.60 10.79L388.60 10.79Q387.97 10.60 387.77 10.09L387.77 10.09L387.77 10.09Q387.84 10.02 388.18 9.92L388.18 9.92L388.18 9.92Q388.51 9.81 389.00 9.70L389.00 9.70L389.00 9.70Q389.21 9.16 389.36 8.75L389.36 8.75L389.36 8.75Q389.51 8.34 389.62 7.99L389.62 7.99L389.62 7.99Q389.73 7.63 389.82 7.29L389.82 7.29L389.82 7.29Q389.91 6.94 390.00 6.54L390.00 6.54L390.00 6.54Q389.51 6.51 389.23 6.27L389.23 6.27L389.23 6.27Q388.95 6.02 388.95 5.63L388.95 5.63L388.95 5.63Q388.95 5.52 388.98 5.36L388.98 5.36L388.98 5.36Q389.02 5.21 389.06 5.10L389.06 5.10L389.06 5.10Q389.34 5.14 389.60 5.15L389.60 5.15L389.60 5.15Q389.86 5.17 390.28 5.17L390.28 5.17L390.28 5.17Q391.16 5.17 391.93 5.12L391.93 5.12L391.93 5.12Q392.70 5.07 393.32 5.01L393.32 5.01L393.32 5.01Q393.95 4.96 394.39 4.91L394.39 4.91L394.39 4.91Q394.84 4.86 395.08 4.86L395.08 4.86L395.08 4.86Q395.40 4.86 395.65 5.19L395.65 5.19L395.65 5.19Q395.91 5.53 396.03 6.15L396.03 6.15L396.03 6.15Q395.60 6.10 395.32 6.09L395.32 6.09L395.32 6.09Q395.05 6.08 394.84 6.08L394.84 6.08L394.84 6.08Q394.07 6.08 393.43 6.15L393.43 6.15L393.43 6.15Q392.80 6.23 392.21 6.31L392.21 6.31L392.21 6.31Q392.13 6.44 392.02 6.64L392.02 6.64L392.02 6.64Q391.92 6.83 391.75 7.18L391.75 7.18L391.75 7.18Q391.58 7.53 391.33 8.06L391.33 8.06L391.33 8.06Q391.09 8.60 390.74 9.39L390.74 9.39L390.74 9.39Q391.27 9.31 391.74 9.26L391.74 9.26L391.74 9.26Q392.21 9.21 392.53 9.21ZM411.40 5.74L411.40 5.74L411.40 5.74Q411.45 5.98 411.47 6.07L411.47 6.07L411.47 6.07Q411.49 6.16 411.49 6.31L411.49 6.31L411.49 6.31Q411.49 6.78 411.28 7.18L411.28 7.18L411.28 7.18Q411.08 7.57 410.73 7.74L410.73 7.74L410.73 7.74Q410.45 7.36 410.05 7.09L410.05 7.09L410.05 7.09Q409.64 6.82 409.16 6.64L409.16 6.64L409.16 6.64Q408.67 6.47 408.16 6.38L408.16 6.38L408.16 6.38Q407.64 6.30 407.15 6.30L407.15 6.30L407.15 6.30Q406.66 6.30 406.23 6.38L406.23 6.38L406.23 6.38Q405.80 6.45 405.47 6.59L405.47 6.59L405.47 6.59Q405.15 6.72 404.96 6.92L404.96 6.92L404.96 6.92Q404.77 7.11 404.77 7.36L404.77 7.36L404.77 7.36Q404.81 7.67 405.15 7.99L405.15 7.99L405.15 7.99Q405.48 8.30 405.97 8.60L405.97 8.60L405.97 8.60Q406.46 8.90 407.06 9.20L407.06 9.20L407.06 9.20Q407.65 9.49 408.23 9.76L408.23 9.76L408.23 9.76Q408.94 10.09 409.46 10.38L409.46 10.38L409.46 10.38Q409.98 10.67 410.31 11.01L410.31 11.01L410.31 11.01Q410.65 11.35 410.82 11.79L410.82 11.79L410.82 11.79Q410.98 12.22 410.98 12.84L410.98 12.84L410.98 12.84Q410.98 13.55 410.75 14.18L410.75 14.18L410.75 14.18Q410.51 14.80 410.05 15.26L410.05 15.26L410.05 15.26Q409.60 15.72 408.95 15.98L408.95 15.98L408.95 15.98Q408.31 16.24 407.51 16.24L407.51 16.24L407.51 16.24Q406.73 16.24 405.82 16.00L405.82 16.00L405.82 16.00Q404.91 15.76 404.12 15.35L404.12 15.35L404.12 15.35Q403.33 14.94 402.80 14.40L402.80 14.40L402.80 14.40Q402.28 13.86 402.28 13.26L402.28 13.26L402.28 13.26Q402.28 12.98 402.44 12.54L402.44 12.54L402.44 12.54Q402.60 12.11 403.02 11.63L403.02 11.63L403.02 11.63Q403.06 12.05 403.47 12.63L403.47 12.63L403.47 12.63Q403.89 13.20 404.71 13.69L404.71 13.69L404.71 13.69Q405.48 14.14 406.30 14.34L406.30 14.34L406.30 14.34Q407.12 14.55 407.83 14.55L407.83 14.55L407.83 14.55Q408.62 14.55 409.11 14.35L409.11 14.35L409.11 14.35Q409.60 14.15 409.88 13.88L409.88 13.88L409.88 13.88Q410.16 13.61 410.27 13.33L410.27 13.33L410.27 13.33Q410.38 13.05 410.40 12.88L410.40 12.88L410.40 12.88Q410.38 12.60 410.14 12.34L410.14 12.34L410.14 12.34Q409.89 12.08 409.48 11.84L409.48 11.84L409.48 11.84Q409.07 11.59 408.52 11.34L408.52 11.34L408.52 11.34Q407.97 11.09 407.39 10.84L407.39 10.84L407.39 10.84Q406.50 10.44 405.87 10.10L405.87 10.10L405.87 10.10Q405.23 9.76 404.82 9.40L404.82 9.40L404.82 9.40Q404.40 9.04 404.21 8.65L404.21 8.65L404.21 8.65Q404.03 8.26 404.03 7.76L404.03 7.76L404.03 7.76Q404.03 6.97 404.50 6.27L404.50 6.27L404.50 6.27Q404.98 5.57 405.87 5.21L405.87 5.21L405.87 5.21Q406.32 5.01 406.83 4.93L406.83 4.93L406.83 4.93Q407.34 4.84 407.83 4.84L407.83 4.84L407.83 4.84Q408.76 4.84 409.64 5.10L409.64 5.10L409.64 5.10Q410.52 5.35 411.40 5.74ZM428.23 5.74L428.23 5.74L428.23 5.74Q428.27 5.98 428.29 6.07L428.29 6.07L428.29 6.07Q428.32 6.16 428.32 6.31L428.32 6.31L428.32 6.31Q428.32 6.78 428.11 7.18L428.11 7.18L428.11 7.18Q427.91 7.57 427.56 7.74L427.56 7.74L427.56 7.74Q427.28 7.36 426.87 7.09L426.87 7.09L426.87 7.09Q426.47 6.82 425.98 6.64L425.98 6.64L425.98 6.64Q425.50 6.47 424.98 6.38L424.98 6.38L424.98 6.38Q424.47 6.30 423.98 6.30L423.98 6.30L423.98 6.30Q423.49 6.30 423.06 6.38L423.06 6.38L423.06 6.38Q422.63 6.45 422.30 6.59L422.30 6.59L422.30 6.59Q421.97 6.72 421.78 6.92L421.78 6.92L421.78 6.92Q421.60 7.11 421.60 7.36L421.60 7.36L421.60 7.36Q421.64 7.67 421.97 7.99L421.97 7.99L421.97 7.99Q422.31 8.30 422.80 8.60L422.80 8.60L422.80 8.60Q423.29 8.90 423.88 9.20L423.88 9.20L423.88 9.20Q424.48 9.49 425.05 9.76L425.05 9.76L425.05 9.76Q425.77 10.09 426.29 10.38L426.29 10.38L426.29 10.38Q426.80 10.67 427.14 11.01L427.14 11.01L427.14 11.01Q427.48 11.35 427.64 11.79L427.64 11.79L427.64 11.79Q427.81 12.22 427.81 12.84L427.81 12.84L427.81 12.84Q427.81 13.55 427.57 14.18L427.57 14.18L427.57 14.18Q427.34 14.80 426.88 15.26L426.88 15.26L426.88 15.26Q426.43 15.72 425.78 15.98L425.78 15.98L425.78 15.98Q425.14 16.24 424.34 16.24L424.34 16.24L424.34 16.24Q423.56 16.24 422.65 16.00L422.65 16.00L422.65 16.00Q421.74 15.76 420.94 15.35L420.94 15.35L420.94 15.35Q420.15 14.94 419.63 14.40L419.63 14.40L419.63 14.40Q419.10 13.86 419.10 13.26L419.10 13.26L419.10 13.26Q419.10 12.98 419.26 12.54L419.26 12.54L419.26 12.54Q419.43 12.11 419.85 11.63L419.85 11.63L419.85 11.63Q419.89 12.05 420.30 12.63L420.30 12.63L420.30 12.63Q420.71 13.20 421.54 13.69L421.54 13.69L421.54 13.69Q422.31 14.14 423.13 14.34L423.13 14.34L423.13 14.34Q423.95 14.55 424.66 14.55L424.66 14.55L424.66 14.55Q425.45 14.55 425.94 14.35L425.94 14.35L425.94 14.35Q426.43 14.15 426.71 13.88L426.71 13.88L426.71 13.88Q426.99 13.61 427.10 13.33L427.10 13.33L427.10 13.33Q427.21 13.05 427.22 12.88L427.22 12.88L427.22 12.88Q427.21 12.60 426.96 12.34L426.96 12.34L426.96 12.34Q426.72 12.08 426.31 11.84L426.31 11.84L426.31 11.84Q425.89 11.59 425.35 11.34L425.35 11.34L425.35 11.34Q424.80 11.09 424.21 10.84L424.21 10.84L424.21 10.84Q423.33 10.44 422.69 10.10L422.69 10.10L422.69 10.10Q422.06 9.76 421.64 9.40L421.64 9.40L421.64 9.40Q421.23 9.04 421.04 8.65L421.04 8.65L421.04 8.65Q420.85 8.26 420.85 7.76L420.85 7.76L420.85 7.76Q420.85 6.97 421.33 6.27L421.33 6.27L421.33 6.27Q421.81 5.57 422.70 5.21L422.70 5.21L422.70 5.21Q423.15 5.01 423.66 4.93L423.66 4.93L423.66 4.93Q424.17 4.84 424.66 4.84L424.66 4.84L424.66 4.84Q425.59 4.84 426.47 5.10L426.47 5.10L426.47 5.10Q427.35 5.35 428.23 5.74Z"></path></g></svg>