<svg data-v-423bf9ae="" xmlns="http://www.w3.org/2000/svg" viewBox="0 0 344.8773882055558 60" class="font"><!----><!----><!----><g data-v-423bf9ae="" id="63f46d50-6cf6-4918-8773-6ab5fd1649a1" fill="black" transform="matrix(4.087193641044897,0,0,4.087193641044897,-1.9209747934587824,-11.117166582159093)"><path d="M0.47 13.20C0.64 13.29 0.85 13.38 1.11 13.48C1.64 13.66 2.16 13.76 2.67 13.76C3.41 13.76 4.14 13.59 4.69 13.28C5.30 12.92 5.66 12.38 5.66 11.63C5.66 11.30 5.58 11.03 5.42 10.79C5.15 10.39 4.71 10.05 4.09 9.78C3.77 9.64 3.52 9.53 3.34 9.44C2.81 9.18 2.53 8.96 2.53 8.64C2.53 8.43 2.63 8.25 2.85 8.13C3.03 8.03 3.27 7.97 3.56 7.97C3.80 7.97 4.01 8.00 4.19 8.06C4.54 8.18 4.82 8.33 5.01 8.53L5.24 7.67C5.09 7.57 4.94 7.50 4.76 7.44C4.35 7.29 3.93 7.22 3.49 7.22C3.05 7.22 2.65 7.27 2.26 7.39C1.80 7.53 1.44 7.74 1.16 8.02C0.85 8.34 0.69 8.74 0.69 9.20C0.69 9.53 0.76 9.81 0.92 10.04C1.18 10.45 1.62 10.81 2.23 11.10L2.56 11.26C2.75 11.35 2.89 11.42 2.98 11.47C3.51 11.73 3.78 11.94 3.78 12.23C3.78 12.48 3.68 12.67 3.47 12.80C3.27 12.92 3.02 12.99 2.72 12.99C2.46 12.99 2.21 12.95 1.96 12.88C1.48 12.75 1.04 12.57 0.65 12.33ZM10.51 7.22C9.86 7.22 9.25 7.32 8.69 7.53C8.07 7.77 7.59 8.12 7.25 8.57C6.85 9.10 6.66 9.75 6.66 10.51C6.66 11.59 7.07 12.42 7.78 12.97C8.43 13.50 9.34 13.76 10.35 13.76C10.75 13.76 11.16 13.68 11.59 13.52C11.98 13.38 12.29 13.22 12.43 13.06L12.29 12.34C12.10 12.47 11.88 12.58 11.63 12.67C11.24 12.82 10.87 12.89 10.51 12.89C10.06 12.89 9.64 12.69 9.32 12.32C8.99 11.92 8.78 11.33 8.77 10.58L8.77 10.43C8.77 10.39 8.78 10.35 8.79 10.28L12.10 10.28L12.55 10.28C12.66 10.28 12.80 10.28 12.99 10.28L13.38 10.28C13.45 10.29 13.55 10.29 13.66 10.29L13.81 9.54L13.66 9.54C13.60 9.55 13.50 9.55 13.36 9.55L13.01 9.55C12.93 9.55 12.83 9.55 12.72 9.55C13.00 9.44 13.15 9.21 13.15 8.72C13.15 8.38 13.01 8.08 12.71 7.83C12.45 7.63 12.10 7.47 11.66 7.36C11.29 7.27 10.91 7.22 10.51 7.22ZM10.48 8.09C11.12 8.09 11.52 8.42 11.52 8.97C11.52 9.18 11.43 9.33 11.26 9.42C11.13 9.49 10.96 9.53 10.75 9.53C10.33 9.53 10.02 9.53 9.81 9.52L8.86 9.52C8.97 9.05 9.21 8.68 9.51 8.44C9.79 8.21 10.14 8.09 10.48 8.09ZM18.36 8.09C18.65 8.09 18.89 8.11 19.08 8.16C19.45 8.25 19.75 8.37 19.96 8.53L20.15 7.60C20.02 7.53 19.86 7.47 19.67 7.41C19.28 7.28 18.83 7.22 18.32 7.22C17.30 7.22 16.35 7.46 15.66 7.96C14.86 8.54 14.46 9.39 14.46 10.51C14.46 11.61 14.85 12.43 15.56 12.97C16.23 13.50 17.19 13.76 18.30 13.76C18.66 13.76 19.05 13.68 19.47 13.52C19.86 13.38 20.13 13.23 20.27 13.06L20.13 12.34C19.90 12.49 19.69 12.59 19.49 12.67C19.12 12.82 18.76 12.89 18.40 12.89C17.89 12.89 17.45 12.69 17.12 12.32C16.77 11.90 16.58 11.28 16.58 10.46C16.58 9.70 16.76 9.10 17.10 8.68C17.42 8.29 17.88 8.09 18.36 8.09ZM28.83 13.53C28.81 13.36 28.78 13.11 28.76 12.80C28.72 12.23 28.70 11.61 28.70 10.91L28.70 9.94C28.70 9.54 28.71 9.18 28.72 8.86C28.74 8.24 28.78 7.73 28.83 7.33L26.54 7.51C26.56 7.67 26.59 7.89 26.61 8.15C26.66 8.69 26.68 9.30 26.68 9.98L26.68 10.42C26.68 10.96 26.52 11.51 26.24 11.93C25.95 12.37 25.55 12.63 25.11 12.63C24.64 12.63 24.30 12.48 24.09 12.17C23.88 11.87 23.78 11.40 23.78 10.76L23.78 9.88C23.78 9.51 23.79 9.17 23.80 8.87C23.82 8.29 23.86 7.81 23.91 7.43L21.64 7.43L21.68 7.87L21.69 8.04C21.73 8.67 21.76 9.32 21.76 9.97L21.76 11.16C21.76 11.92 21.93 12.52 22.28 12.94C22.71 13.47 23.41 13.73 24.35 13.73C24.81 13.73 25.28 13.57 25.70 13.31C26.10 13.06 26.43 12.71 26.63 12.33C26.62 12.48 26.61 12.59 26.61 12.64C26.61 12.73 26.60 12.79 26.60 12.83C26.57 13.20 26.55 13.43 26.54 13.53ZM35.27 7.30C35.15 7.25 34.99 7.22 34.80 7.22C34.33 7.22 33.93 7.43 33.60 7.86C33.43 8.08 33.30 8.33 33.21 8.62C33.23 8.12 33.26 7.69 33.31 7.33L31.02 7.51L31.09 8.20C31.14 8.79 31.16 9.43 31.16 10.09L31.16 10.91C31.16 11.30 31.15 11.65 31.14 11.96C31.11 12.57 31.07 13.10 31.02 13.53L33.31 13.53C33.29 13.36 33.26 13.11 33.24 12.80C33.19 12.17 33.17 11.54 33.17 10.91L33.17 10.02C33.17 9.71 33.31 9.35 33.54 9.04C33.78 8.72 34.13 8.51 34.52 8.51C34.60 8.51 34.69 8.53 34.78 8.55C34.95 8.60 35.08 8.65 35.16 8.71L35.41 7.39C35.38 7.35 35.34 7.32 35.27 7.30ZM36.46 5.17L38.18 5.99L38.93 4.38L37.23 3.58ZM36.64 10.91C36.64 11.30 36.63 11.65 36.62 11.96C36.59 12.57 36.55 13.10 36.51 13.53L38.79 13.53C38.77 13.36 38.74 13.11 38.72 12.80C38.68 12.23 38.65 11.61 38.65 10.91L38.65 9.94C38.65 9.54 38.66 9.18 38.68 8.86C38.70 8.24 38.73 7.73 38.79 7.33L36.51 7.51L36.57 8.20C36.62 8.79 36.64 9.43 36.64 10.09ZM40.31 8.30L41.13 8.30L41.13 10.43C41.13 11.66 41.28 12.46 41.66 12.97C42.06 13.51 42.71 13.76 43.73 13.76C44.09 13.76 44.41 13.73 44.67 13.66C45.19 13.54 45.60 13.38 45.89 13.16L45.72 12.32C45.59 12.43 45.45 12.51 45.30 12.59C44.97 12.76 44.64 12.85 44.32 12.85C43.82 12.85 43.53 12.63 43.36 12.17C43.20 11.75 43.14 11.10 43.14 10.06L43.14 8.32L43.79 8.35L44.13 8.37L44.81 8.42C44.93 8.44 45.00 8.44 45.02 8.45L45.23 7.44L43.14 7.44C43.14 6.70 43.15 6.06 43.16 5.53C43.16 5.38 43.16 5.19 43.16 4.96L41.92 4.96C41.78 5.16 41.65 5.37 41.52 5.60C41.26 6.08 41.13 6.49 41.13 6.82L41.13 7.50C41.05 7.51 40.93 7.54 40.76 7.57C40.55 7.64 40.40 7.69 40.32 7.73ZM48.32 13.40L48.95 13.67C48.78 13.88 48.58 14.13 48.36 14.43C48.01 14.95 47.69 15.44 47.40 15.94C47.20 16.30 47.01 16.64 46.84 16.96L46.76 17.12L46.81 17.40L47.61 17.39C47.68 17.21 47.87 16.87 48.18 16.37C48.59 15.72 48.95 15.19 49.25 14.79C49.70 14.18 50.09 13.73 50.41 13.43C50.70 13.15 51.00 12.83 51.32 12.47C51.93 11.77 52.36 11.07 52.62 10.36C52.81 9.86 52.90 9.30 52.90 8.69C52.90 8.53 52.90 8.41 52.89 8.34L52.88 8.16L52.84 7.74C52.82 7.62 52.81 7.55 52.80 7.51L51.58 7.34C51.63 7.47 51.67 7.64 51.71 7.85C51.75 8.08 51.77 8.34 51.77 8.66C51.77 8.75 51.77 8.93 51.76 9.18C51.70 9.77 51.45 10.42 51.02 11.13C50.79 11.53 50.46 11.98 50.04 12.47C49.53 11.02 49.14 9.92 48.87 9.16C48.79 8.95 48.73 8.74 48.68 8.53C48.57 8.12 48.48 7.76 48.43 7.44L46.03 7.44C46.08 7.55 46.14 7.67 46.21 7.83C46.24 7.92 46.28 7.99 46.30 8.04C46.45 8.37 46.61 8.78 46.80 9.28L47.11 10.10ZM54.03 10.93L54.64 10.90C55.16 10.87 55.67 10.86 56.18 10.86C56.41 10.86 56.71 10.86 57.07 10.87C57.53 10.89 57.97 10.92 58.38 10.96L58.38 9.93L57.77 9.98C57.34 10.00 56.81 10.01 56.20 10.01C55.97 10.01 55.69 10.00 55.34 10.00C54.85 9.98 54.41 9.96 54.03 9.93ZM66.39 13.38C66.37 13.28 66.36 13.12 66.35 12.89C66.31 12.30 66.29 11.56 66.29 10.69L66.29 10.21L66.29 9.90C66.29 9.79 66.28 9.67 66.28 9.55C66.24 8.82 66.05 8.26 65.70 7.88C65.28 7.43 64.62 7.22 63.74 7.22C63.25 7.22 62.73 7.37 62.30 7.64C61.86 7.92 61.52 8.30 61.36 8.70L61.36 5.53C61.36 5.13 61.37 4.76 61.38 4.42C61.40 3.75 61.44 3.19 61.50 2.72L59.21 2.90L59.28 3.74C59.33 4.46 59.35 5.21 59.35 5.99L59.35 10.91C59.35 11.30 59.34 11.65 59.33 11.96C59.30 12.57 59.26 13.10 59.21 13.53L61.50 13.53C61.47 13.36 61.45 13.11 61.43 12.80C61.38 12.23 61.36 11.61 61.36 10.91L61.36 10.48C61.37 9.95 61.54 9.42 61.82 9.00C62.10 8.57 62.50 8.31 62.93 8.31C63.46 8.31 63.79 8.48 63.99 8.86C64.19 9.21 64.27 9.74 64.27 10.51C64.27 11.51 64.25 12.26 64.20 12.78C64.16 13.27 64.14 13.52 64.13 13.53L66.41 13.53ZM75.31 13.53C75.29 13.36 75.26 13.11 75.24 12.80C75.20 12.23 75.18 11.61 75.18 10.91L75.18 9.94C75.18 9.54 75.19 9.18 75.20 8.86C75.22 8.24 75.26 7.73 75.31 7.33L73.02 7.51C73.05 7.67 73.07 7.89 73.09 8.15C73.14 8.69 73.16 9.30 73.16 9.98L73.16 10.42C73.16 10.96 73.00 11.51 72.72 11.93C72.43 12.37 72.03 12.63 71.59 12.63C71.12 12.63 70.78 12.48 70.57 12.17C70.36 11.87 70.26 11.40 70.26 10.76L70.26 9.88C70.26 9.51 70.27 9.17 70.28 8.87C70.30 8.29 70.34 7.81 70.39 7.43L68.12 7.43L68.16 7.87L68.17 8.04C68.22 8.67 68.24 9.32 68.24 9.97L68.24 11.16C68.24 11.92 68.41 12.52 68.76 12.94C69.20 13.47 69.89 13.73 70.83 13.73C71.29 13.73 71.76 13.57 72.18 13.31C72.58 13.06 72.91 12.71 73.11 12.33C73.10 12.48 73.09 12.59 73.09 12.64C73.09 12.73 73.08 12.79 73.08 12.83C73.05 13.20 73.03 13.43 73.02 13.53ZM84.85 10.29C84.85 9.39 84.62 8.62 84.14 8.08C83.63 7.50 82.88 7.22 81.88 7.22C81.28 7.22 80.77 7.35 80.35 7.62C80.05 7.83 79.79 8.10 79.59 8.45L79.59 5.53C79.59 5.13 79.60 4.76 79.61 4.42C79.64 3.72 79.68 3.16 79.73 2.72L77.44 2.90L77.46 3.12L77.51 3.76C77.55 4.60 77.57 5.38 77.57 6.10L77.57 8.06L77.57 9.34L77.57 10.11L77.57 10.52L77.57 10.73C77.57 10.79 77.57 10.84 77.58 10.89C77.60 11.75 77.85 12.41 78.31 12.89C78.86 13.46 79.70 13.75 80.83 13.75C82.00 13.75 82.99 13.48 83.71 12.92C84.44 12.33 84.85 11.46 84.85 10.29ZM82.78 10.25C82.78 10.94 82.64 11.52 82.35 11.98C82.06 12.43 81.68 12.71 81.19 12.82C81.05 12.87 80.93 12.89 80.81 12.89C80.46 12.89 80.18 12.71 79.96 12.36C79.72 11.96 79.60 11.36 79.60 10.75L79.60 10.63C79.60 9.96 79.79 9.38 80.09 8.93C80.37 8.53 80.72 8.25 81.05 8.13C81.21 8.08 81.36 8.05 81.49 8.05C81.82 8.05 82.09 8.18 82.31 8.44C82.61 8.81 82.78 9.44 82.78 10.25Z"></path></g><!----><!----></svg>